<svg viewBox="0 0 1187.71 1035.23" xmlns="http://www.w3.org/2000/svg"><g fill="#fff"><path d="m114.19 859.57c14.41 0 25.7-11.29 25.7-25.7v-73.66l82.05-110.72c4.51-6.31 6.8-12.46 6.8-18.24 0-14.94-10.04-24.98-24.97-24.98-9.78 0-17.71 4.99-24.97 15.69l-64.25 91.73-63.14-90.99c-7.64-11.27-15.33-16.07-25.71-16.07-14.41 0-25.69 10.81-25.69 24.61 0 6.6 2.11 12.69 6.45 18.61l82.04 111.45v72.57c0 14.41 11.29 25.7 25.69 25.7z"/><path d="m415.8 604.47c-74.36 0-132.61 56.5-132.61 128.64v.72c0 72.92 56.7 127.92 131.89 127.92s132.61-56.5 132.61-128.64v-.72c0-72.92-56.7-127.92-131.89-127.92zm77.97 129.36c0 46.09-33.52 80.85-77.97 80.85s-78.69-35.83-78.69-81.58v-.72c0-46.1 33.52-80.86 77.97-80.86s78.69 35.83 78.69 81.58v.72z"/><path d="m841.86 628.62c-24.23-16.92-49.68-24.15-85.07-24.15-73.15 0-130.45 56.5-130.45 128.64v.72c0 75.31 53.79 127.92 130.8 127.92 31 0 60.4-8.4 87.39-24.97 12.8-7.61 18.5-17.97 18.5-33.59v-61.41c0-14.41-11.29-25.69-25.7-25.69h-84.74c-12.18 0-22.08 9.91-22.08 22.08s9.7 21.72 22.08 21.72h60.85v39.33l-.88.63c-14.19 10.18-32.73 15.56-53.61 15.56-45.59 0-78.69-34.61-78.69-82.3v-.72c0-44.59 33.52-80.86 74.72-80.86 22.2 0 39.09 5.3 56.5 17.73 3.85 2.8 8.41 5.38 15.74 5.38 13.97 0 25.34-11.36 25.34-25.34 0-11.6-7.48-18.33-10.7-20.68z"/><path d="m1094.76 625.6c-6.08-13.59-16.53-20.77-30.21-20.77h-3.25c-13.72 0-24.58 7.38-30.58 20.78l-88.13 199.03c-1.51 3.33-3.06 7.24-3.06 11.04 0 13.4 10.33 23.89 23.52 23.89 10.64 0 19.28-5.85 23.7-16.06l18.24-42.81h114.04l17.53 41.02c5.18 11.84 13.52 17.86 24.78 17.86 13.6 0 24.25-10.81 24.25-24.61 0-3.03-.83-6.22-2.7-10.32l-88.14-199.04zm-70.96 130.21 38.22-91.02 38.22 91.02z"/><path d="m88.36 1026.5v-67.97c0-4.13 3.19-7.32 7.32-7.32h48.03c3.54 0 6.49 2.95 6.49 6.49s-2.95 6.49-6.49 6.49h-40.83v21.48h27.05c3.54 0 6.49 2.95 6.49 6.6s-2.95 6.38-6.49 6.38h-27.05v22.19h41.42c3.54 0 6.49 2.95 6.49 6.49s-2.95 6.49-6.49 6.49h-48.62c-4.13 0-7.32-3.19-7.32-7.31z"/><path d="m179.23 958.05c0-4.01 3.19-7.31 7.32-7.31h1.53c3.19 0 5.31 1.65 6.73 3.89l25.02 39.18 25.13-39.29c1.53-2.48 3.66-3.78 6.61-3.78h1.53c4.13 0 7.32 3.3 7.32 7.31v69.15c0 4.01-3.19 7.2-7.32 7.2-3.89 0-7.2-3.31-7.2-7.2v-49.56l-20.17 30.32c-1.53 2.36-3.43 3.78-6.14 3.78s-4.48-1.42-6.02-3.78l-20.06-30.09v49.45c0 4.01-3.19 7.08-7.2 7.08s-7.08-3.07-7.08-7.08z"/><path d="m340.69 958.05c0-4.01 3.19-7.31 7.31-7.31h1.53c3.19 0 5.31 1.65 6.73 3.89l25.02 39.18 25.13-39.29c1.53-2.48 3.66-3.78 6.61-3.78h1.53c4.13 0 7.32 3.3 7.32 7.31v69.15c0 4.01-3.19 7.2-7.32 7.2-3.89 0-7.2-3.31-7.2-7.2v-49.56l-20.17 30.32c-1.53 2.36-3.43 3.78-6.14 3.78s-4.48-1.42-6.02-3.78l-20.06-30.09v49.45c0 4.01-3.19 7.08-7.2 7.08s-7.08-3.07-7.08-7.08v-69.27z"/><path d="m451.28 992.75v-.24c0-23.25 17.94-42.72 43.31-42.72s43.07 19.24 43.07 42.48v.24c0 23.25-17.94 42.72-43.31 42.72s-43.07-19.24-43.07-42.48zm71.15 0v-.24c0-16.05-11.68-29.39-28.08-29.39s-27.85 13.1-27.85 29.15v.24c0 16.05 11.68 29.27 28.08 29.27s27.85-12.98 27.85-29.03z"/><path d="m587.46 1029.09-28.91-67.97c-.47-1.06-.83-2.12-.83-3.42 0-3.89 3.19-7.08 7.32-7.08 3.77 0 6.25 2.13 7.43 5.19l23.84 59.59 24.19-60.07c.94-2.48 3.54-4.72 6.96-4.72 4.01 0 7.2 3.07 7.2 6.96 0 1.06-.36 2.24-.71 3.07l-29.03 68.44c-1.53 3.66-4.25 5.9-8.38 5.9h-.82c-4.01 0-6.73-2.24-8.26-5.9z"/><path d="m662.64 957.82c0-4.01 3.19-7.2 7.32-7.2s7.2 3.19 7.2 7.2v69.39c0 4.01-3.18 7.2-7.2 7.2s-7.32-3.19-7.32-7.2z"/><path d="m711.04 958.05c0-4.01 3.19-7.31 7.31-7.31h1.53c3.19 0 5.31 1.65 6.73 3.89l25.02 39.18 25.13-39.29c1.53-2.48 3.66-3.78 6.61-3.78h1.53c4.13 0 7.32 3.3 7.32 7.31v69.15c0 4.01-3.19 7.2-7.32 7.2-3.89 0-7.2-3.31-7.2-7.2v-49.56l-20.17 30.32c-1.53 2.36-3.43 3.78-6.14 3.78s-4.48-1.42-6.02-3.78l-20.06-30.09v49.45c0 4.01-3.19 7.08-7.2 7.08s-7.08-3.07-7.08-7.08v-69.27z"/><path d="m825.28 1026.5v-67.97c0-4.13 3.19-7.32 7.31-7.32h48.03c3.54 0 6.49 2.95 6.49 6.49s-2.95 6.49-6.49 6.49h-40.83v21.48h27.06c3.54 0 6.49 2.95 6.49 6.6s-2.95 6.38-6.49 6.38h-27.06v22.19h41.42c3.54 0 6.49 2.95 6.49 6.49s-2.95 6.49-6.49 6.49h-48.62c-4.13 0-7.31-3.19-7.31-7.31z"/><path d="m916.15 958.05c0-4.01 3.19-7.31 7.31-7.31h1.53c3.54 0 5.55 1.77 7.55 4.25l41.3 53.45v-50.74c0-3.89 3.19-7.08 7.08-7.08s7.2 3.19 7.2 7.08v69.39c0 4.01-3.07 7.2-7.08 7.2h-.59c-3.42 0-5.55-1.77-7.55-4.36l-42.48-54.99v52.39c0 3.89-3.19 7.08-7.08 7.08s-7.2-3.19-7.2-7.08v-69.27z"/><path d="m1041.49 964.66h-20.06c-3.77 0-6.72-3.07-6.72-6.72s2.95-6.73 6.72-6.73h54.87c3.66 0 6.61 3.07 6.61 6.73s-2.95 6.72-6.61 6.72h-20.17v62.54c0 4.01-3.31 7.2-7.32 7.2s-7.31-3.19-7.31-7.2v-62.54z"/><path d="m1101.33 992.75v-.24c0-23.25 17.94-42.72 43.31-42.72s43.07 19.24 43.07 42.48v.24c0 23.25-17.94 42.72-43.31 42.72s-43.07-19.24-43.07-42.48zm71.16 0v-.24c0-16.05-11.68-29.39-28.08-29.39s-27.85 13.1-27.85 29.15v.24c0 16.05 11.68 29.27 28.08 29.27s27.85-12.98 27.85-29.03z"/><path d="m920.97 252.24-192.07-192.07c-2.62-2.62-6.87-2.62-9.49 0l-192.07 192.07c-2.62 2.62-2.62 6.87 0 9.49l192.07 192.07c1.26 1.26 2.96 1.97 4.74 1.97s3.49-.71 4.74-1.97l192.07-192.07c1.26-1.26 1.97-2.96 1.97-4.74s-.71-3.49-1.97-4.74z"/><path d="m660.37 252.24-192.07-192.06c-2.62-2.62-6.87-2.62-9.49 0l-192.07 192.07c-1.26 1.26-1.97 2.96-1.97 4.74s.71 3.48 1.97 4.74l192.07 192.07c1.31 1.31 3.03 1.97 4.74 1.97s3.43-.66 4.74-1.97l192.07-192.07c1.26-1.26 1.97-2.96 1.97-4.74s-.71-3.49-1.97-4.74z"/></g><path d="m845.47 244.01-238.63-238.63c-7.16-7.17-18.79-7.17-25.96 0l-238.63 238.63c-7.17 7.17-7.17 18.79 0 25.96l238.63 238.63c3.58 3.59 8.28 5.38 12.98 5.38s9.4-1.79 12.98-5.38l238.63-238.63c7.17-7.17 7.17-18.79 0-25.96z" fill="#3c3a4f"/><g fill="#fff"><path d="m654.99 211.21c-38.55 0-69.92 29.52-69.92 65.8 0 26.69-23.49 48.41-52.36 48.41s-52.35-21.72-52.35-48.41 23.49-48.41 52.35-48.41c12.91 0 25.3 4.38 34.91 12.34 3.71 3.07 9.25 2.58 12.36-1.08 1.51-1.78 2.23-4.03 2.02-6.35-.2-2.32-1.31-4.42-3.11-5.92-12.77-10.57-29.17-16.39-46.18-16.39-38.55 0-69.92 29.52-69.92 65.8s31.37 65.8 69.92 65.8 69.92-29.52 69.92-65.8c0-26.69 23.49-48.41 52.35-48.41s52.35 21.72 52.35 48.41-23.49 48.41-52.35 48.41c-12.91 0-25.3-4.38-34.91-12.34-3.7-3.07-9.25-2.59-12.36 1.08-1.51 1.78-2.23 4.04-2.02 6.35.21 2.32 1.31 4.42 3.12 5.91 12.76 10.57 29.16 16.39 46.18 16.39 38.55 0 69.92-29.52 69.92-65.8s-31.37-65.8-69.92-65.8z"/><path d="m593.86 124.87c-15.82 0-28.69 12.72-28.69 28.34s12.87 28.34 28.69 28.34 28.69-12.71 28.69-28.34-12.87-28.34-28.69-28.34z"/></g></svg>