<svg viewBox="0 0 1889 516.27" xmlns="http://www.w3.org/2000/svg"><g fill="#fff"><path d="m810.67 298.04c14.48 0 25.81-11.34 25.81-25.81v-73.99l82.42-111.22c4.53-6.34 6.84-12.52 6.84-18.33 0-15.01-10.08-25.09-25.09-25.09-9.82 0-17.79 5.01-25.09 15.76l-64.53 92.14-63.42-91.39c-7.68-11.32-15.4-16.14-25.83-16.14-14.47 0-25.81 10.86-25.81 24.72 0 6.63 2.12 12.75 6.48 18.69l82.41 111.95v72.89c0 14.48 11.34 25.81 25.81 25.81z"/><path d="m1113.64 41.79c-74.69 0-133.2 56.76-133.2 129.21v.73c0 73.25 56.95 128.49 132.48 128.49s133.2-56.76 133.2-129.21v-.72c0-73.25-56.95-128.49-132.48-128.49zm78.32 129.94c0 46.3-33.67 81.22-78.32 81.22s-79.04-35.99-79.04-81.94v-.72c0-46.3 33.67-81.22 78.32-81.22s79.04 35.99 79.04 81.94v.73z"/><path d="m1541.6 66.05c-24.33-17-49.9-24.26-85.45-24.26-73.47 0-131.03 56.76-131.03 129.21v.73c0 75.65 54.03 128.49 131.39 128.49 31.14 0 60.67-8.44 87.78-25.09 12.86-7.65 18.58-18.05 18.58-33.74v-61.68c0-14.47-11.34-25.81-25.81-25.81h-85.11c-12.23 0-22.18 9.95-22.18 22.18s9.74 21.82 22.18 21.82h61.12v39.5l-.88.64c-14.25 10.23-32.88 15.63-53.85 15.63-45.8 0-79.04-34.77-79.04-82.67v-.72c0-44.79 33.67-81.22 75.05-81.22 22.29 0 39.27 5.33 56.75 17.81 3.87 2.81 8.45 5.41 15.81 5.41 14.04 0 25.45-11.42 25.45-25.45 0-11.65-7.52-18.41-10.75-20.78z"/><path d="m1795.63 63.02c-6.1-13.65-16.6-20.87-30.35-20.87h-3.26c-13.78 0-24.69 7.41-30.72 20.87l-88.53 199.92c-1.52 3.34-3.07 7.28-3.07 11.09 0 13.46 10.38 24 23.63 24 10.69 0 19.37-5.88 23.81-16.13l18.33-43.01h114.55l17.61 41.2c5.2 11.9 13.58 17.94 24.89 17.94 13.66 0 24.36-10.86 24.36-24.72 0-3.04-.83-6.24-2.71-10.37l-88.54-199.93zm-71.28 130.79 38.39-91.43 38.39 91.43z"/><path d="m784.73 465.71v-68.28c0-4.15 3.2-7.35 7.35-7.35h48.24c3.56 0 6.52 2.96 6.52 6.52s-2.96 6.52-6.52 6.52h-41.01v21.58h27.17c3.56 0 6.52 2.96 6.52 6.63s-2.96 6.4-6.52 6.4h-27.17v22.28h41.61c3.56 0 6.52 2.96 6.52 6.52s-2.96 6.52-6.52 6.52h-48.84c-4.15 0-7.35-3.2-7.35-7.35z"/><path d="m876.01 396.96c0-4.03 3.2-7.35 7.35-7.35h1.54c3.2 0 5.33 1.66 6.76 3.91l25.13 39.35 25.25-39.47c1.54-2.49 3.68-3.8 6.64-3.8h1.54c4.15 0 7.35 3.32 7.35 7.35v69.46c0 4.03-3.2 7.23-7.35 7.23-3.91 0-7.23-3.32-7.23-7.23v-49.78l-20.27 30.46c-1.54 2.37-3.44 3.8-6.16 3.8s-4.5-1.42-6.05-3.8l-20.15-30.23v49.67c0 4.03-3.2 7.11-7.23 7.11s-7.11-3.08-7.11-7.11v-69.58z"/><path d="m1038.19 396.96c0-4.03 3.2-7.35 7.35-7.35h1.54c3.2 0 5.34 1.66 6.76 3.91l25.13 39.35 25.25-39.47c1.54-2.49 3.68-3.8 6.64-3.8h1.54c4.15 0 7.35 3.32 7.35 7.35v69.46c0 4.03-3.2 7.23-7.35 7.23-3.91 0-7.23-3.32-7.23-7.23v-49.78l-20.27 30.46c-1.54 2.37-3.44 3.8-6.16 3.8s-4.5-1.42-6.05-3.8l-20.15-30.23v49.67c0 4.03-3.2 7.11-7.23 7.11s-7.11-3.08-7.11-7.11v-69.58z"/><path d="m1149.27 431.81v-.24c0-23.35 18.02-42.91 43.5-42.91s43.27 19.32 43.27 42.67v.24c0 23.35-18.02 42.91-43.5 42.91s-43.27-19.32-43.27-42.67zm71.48 0v-.24c0-16.12-11.74-29.52-28.21-29.52s-27.98 13.16-27.98 29.28v.24c0 16.12 11.74 29.4 28.21 29.4s27.98-13.04 27.98-29.16z"/><path d="m1286.07 468.31-29.04-68.28c-.47-1.07-.83-2.13-.83-3.44 0-3.91 3.2-7.11 7.35-7.11 3.79 0 6.28 2.13 7.47 5.22l23.95 59.86 24.3-60.33c.95-2.49 3.56-4.74 6.99-4.74 4.03 0 7.23 3.08 7.23 6.99 0 1.07-.36 2.25-.71 3.08l-29.16 68.75c-1.54 3.68-4.27 5.93-8.42 5.93h-.83c-4.03 0-6.76-2.25-8.3-5.93z"/><path d="m1361.58 396.72c0-4.03 3.2-7.23 7.35-7.23s7.23 3.2 7.23 7.23v69.7c0 4.03-3.2 7.23-7.23 7.23s-7.35-3.2-7.35-7.23z"/><path d="m1410.19 396.96c0-4.03 3.2-7.35 7.35-7.35h1.54c3.2 0 5.34 1.66 6.76 3.91l25.13 39.35 25.25-39.47c1.54-2.49 3.68-3.8 6.64-3.8h1.54c4.15 0 7.35 3.32 7.35 7.35v69.46c0 4.03-3.2 7.23-7.35 7.23-3.91 0-7.23-3.32-7.23-7.23v-49.78l-20.27 30.46c-1.54 2.37-3.44 3.8-6.16 3.8s-4.5-1.42-6.05-3.8l-20.15-30.23v49.67c0 4.03-3.2 7.11-7.23 7.11s-7.11-3.08-7.11-7.11v-69.58z"/><path d="m1524.94 465.71v-68.28c0-4.15 3.2-7.35 7.35-7.35h48.24c3.56 0 6.52 2.96 6.52 6.52s-2.96 6.52-6.52 6.52h-41.01v21.58h27.18c3.55 0 6.52 2.96 6.52 6.63s-2.97 6.4-6.52 6.4h-27.18v22.28h41.61c3.56 0 6.52 2.96 6.52 6.52s-2.96 6.52-6.52 6.52h-48.84c-4.15 0-7.35-3.2-7.35-7.35z"/><path d="m1616.23 396.96c0-4.03 3.2-7.35 7.35-7.35h1.54c3.56 0 5.57 1.78 7.59 4.27l41.49 53.69v-50.97c0-3.91 3.2-7.11 7.11-7.11s7.23 3.2 7.23 7.11v69.7c0 4.03-3.08 7.23-7.11 7.23h-.59c-3.44 0-5.57-1.78-7.59-4.38l-42.67-55.24v52.63c0 3.91-3.2 7.11-7.11 7.11s-7.23-3.2-7.23-7.11v-69.58z"/><path d="m1742.13 403.6h-20.15c-3.79 0-6.75-3.08-6.75-6.75s2.96-6.76 6.75-6.76h55.12c3.68 0 6.64 3.08 6.64 6.76s-2.96 6.75-6.64 6.75h-20.27v62.82c0 4.03-3.32 7.23-7.35 7.23s-7.35-3.2-7.35-7.23z"/><path d="m1802.23 431.81v-.24c0-23.35 18.02-42.91 43.5-42.91s43.27 19.32 43.27 42.67v.24c0 23.35-18.02 42.91-43.5 42.91s-43.27-19.32-43.27-42.67zm71.48 0v-.24c0-16.12-11.74-29.52-28.21-29.52s-27.98 13.16-27.98 29.28v.24c0 16.12 11.74 29.4 28.21 29.4s27.98-13.04 27.98-29.16z"/><path d="m659.13 253.37-192.93-192.93c-2.63-2.63-6.9-2.63-9.53 0l-192.93 192.93c-2.63 2.63-2.63 6.9 0 9.53l192.93 192.93c1.26 1.26 2.98 1.97 4.76 1.97s3.5-.71 4.76-1.97l192.93-192.93c1.26-1.26 1.97-2.98 1.97-4.76s-.71-3.5-1.97-4.76z"/><path d="m397.36 253.37-192.93-192.93c-2.63-2.63-6.9-2.63-9.53 0l-192.93 192.93c-1.26 1.26-1.97 2.98-1.97 4.76s.71 3.5 1.97 4.76l192.93 192.93c1.32 1.32 3.04 1.97 4.76 1.97s3.45-.66 4.76-1.97l192.93-192.93c1.26-1.26 1.97-2.98 1.97-4.76s-.71-3.5-1.97-4.76z"/></g><path d="m583.29 245.1-239.7-239.7c-7.2-7.2-18.88-7.2-26.07 0l-239.7 239.7c-7.2 7.2-7.2 18.87 0 26.07l239.7 239.7c3.6 3.6 8.32 5.4 13.04 5.4s9.44-1.8 13.04-5.4l239.7-239.7c7.2-7.2 7.2-18.87 0-26.07z" fill="#3c3a4f"/><path d="m391.96 212.16c-38.72 0-70.23 29.65-70.23 66.1 0 26.81-23.59 48.62-52.59 48.62s-52.59-21.81-52.59-48.62 23.59-48.63 52.59-48.63c12.97 0 25.42 4.4 35.07 12.39 3.73 3.08 9.29 2.6 12.41-1.08 1.51-1.79 2.24-4.05 2.03-6.38s-1.32-4.44-3.13-5.94c-12.83-10.62-29.3-16.46-46.39-16.46-38.72 0-70.23 29.65-70.23 66.1s31.51 66.09 70.23 66.09 70.23-29.65 70.23-66.09c0-26.81 23.59-48.63 52.59-48.63s52.59 21.81 52.59 48.63-23.59 48.62-52.59 48.62c-12.97 0-25.42-4.4-35.07-12.39-3.72-3.08-9.29-2.6-12.41 1.08-1.51 1.79-2.24 4.05-2.03 6.38s1.32 4.44 3.13 5.94c12.82 10.61 29.29 16.46 46.39 16.46 38.72 0 70.23-29.65 70.23-66.09s-31.51-66.1-70.23-66.1z" fill="#fff"/><path d="m330.55 125.43c-15.89 0-28.82 12.77-28.82 28.47s12.93 28.47 28.82 28.47 28.82-12.77 28.82-28.47-12.93-28.47-28.82-28.47z" fill="#fff"/></svg>