<svg viewBox="0 0 1299.16 1014.54" xmlns="http://www.w3.org/2000/svg"><path d="m1295.28 497.9-379.13-379.12c-5.17-5.17-13.55-5.17-18.73 0l-379.12 379.12c-5.17 5.17-5.17 13.55 0 18.73l379.12 379.13c2.48 2.48 5.85 3.88 9.36 3.88s6.88-1.4 9.36-3.88l379.13-379.13c2.48-2.48 3.88-5.85 3.88-9.36s-1.4-6.88-3.88-9.36z"/><path d="m780.86 497.9-379.13-379.12c-5.17-5.17-13.55-5.17-18.73 0l-379.12 379.12c-2.48 2.48-3.88 5.85-3.88 9.36s1.4 6.88 3.88 9.36l379.13 379.13c2.59 2.59 5.97 3.88 9.36 3.88s6.78-1.29 9.36-3.88l379.13-379.13c2.48-2.48 3.88-5.85 3.88-9.36s-1.4-6.88-3.88-9.36z"/><path d="m1146.23 481.65-471.03-471.03c-14.14-14.15-37.1-14.15-51.24 0l-471.03 471.03c-14.15 14.15-14.15 37.09 0 51.24l471.03 471.03c7.07 7.08 16.35 10.61 25.62 10.61s18.55-3.54 25.62-10.61l471.03-471.03c14.15-14.15 14.15-37.09 0-51.24z" fill="#595959"/><g fill="#fff"><path d="m770.26 416.92c-76.1 0-138.01 58.27-138.01 129.89 0 52.69-46.36 95.55-103.35 95.55s-103.34-42.86-103.34-95.55 46.36-95.56 103.34-95.56c25.48 0 49.95 8.65 68.92 24.36 7.33 6.06 18.27 5.1 24.4-2.13 2.98-3.51 4.39-7.96 3.99-12.53-.4-4.58-2.58-8.73-6.14-11.68-25.2-20.86-57.58-32.35-91.16-32.35-76.1 0-138.01 58.27-138.01 129.89s61.91 129.88 138.01 129.88 138.02-58.27 138.02-129.88c0-52.69 46.36-95.56 103.34-95.56s103.34 42.87 103.34 95.56-46.36 95.55-103.34 95.55c-25.48 0-49.95-8.65-68.92-24.36-7.31-6.05-18.25-5.1-24.4 2.13-2.98 3.51-4.4 7.97-3.99 12.54.41 4.58 2.59 8.73 6.15 11.67 25.19 20.86 57.57 32.35 91.16 32.35 76.1 0 138.01-58.27 138.01-129.88s-61.91-129.89-138.01-129.89z"/><path d="m649.58 246.48c-31.23 0-56.63 25.1-56.63 55.95s25.4 55.95 56.63 55.95 56.63-25.1 56.63-55.95-25.4-55.95-56.63-55.95z"/></g></svg>