<svg viewBox="0 0 1889 523.97" xmlns="http://www.w3.org/2000/svg"><path d="m810.67 301.89c14.48 0 25.81-11.34 25.81-25.81v-73.99l82.42-111.22c4.53-6.34 6.84-12.52 6.84-18.33 0-15.01-10.08-25.09-25.09-25.09-9.82 0-17.79 5.01-25.09 15.76l-64.53 92.14-63.42-91.39c-7.68-11.32-15.4-16.14-25.83-16.14-14.47 0-25.81 10.86-25.81 24.72 0 6.63 2.12 12.75 6.48 18.69l82.41 111.95v72.89c0 14.48 11.34 25.81 25.81 25.81z"/><path d="m1113.64 45.64c-74.69 0-133.2 56.76-133.2 129.21v.73c0 73.25 56.95 128.49 132.48 128.49s133.2-56.76 133.2-129.21v-.72c0-73.25-56.95-128.49-132.48-128.49zm78.32 129.94c0 46.3-33.67 81.22-78.32 81.22s-79.04-35.99-79.04-81.94v-.72c0-46.3 33.67-81.22 78.32-81.22s79.04 35.99 79.04 81.94v.73z"/><path d="m1541.6 69.9c-24.33-17-49.9-24.26-85.45-24.26-73.47 0-131.03 56.76-131.03 129.21v.73c0 75.65 54.03 128.49 131.39 128.49 31.14 0 60.67-8.44 87.78-25.09 12.86-7.65 18.58-18.05 18.58-33.74v-61.68c0-14.47-11.34-25.81-25.81-25.81h-85.11c-12.23 0-22.18 9.95-22.18 22.18s9.74 21.82 22.18 21.82h61.12v39.5l-.88.64c-14.25 10.23-32.88 15.63-53.85 15.63-45.8 0-79.04-34.77-79.04-82.67v-.72c0-44.79 33.67-81.22 75.05-81.22 22.29 0 39.27 5.33 56.75 17.81 3.87 2.81 8.45 5.41 15.81 5.41 14.04 0 25.45-11.42 25.45-25.45 0-11.65-7.52-18.41-10.75-20.78z"/><path d="m1795.63 66.87c-6.1-13.65-16.6-20.87-30.35-20.87h-3.26c-13.78 0-24.69 7.41-30.72 20.87l-88.53 199.92c-1.52 3.34-3.07 7.28-3.07 11.09 0 13.46 10.38 24 23.63 24 10.69 0 19.37-5.88 23.81-16.13l18.33-43.01h114.55l17.61 41.2c5.2 11.9 13.58 17.94 24.89 17.94 13.66 0 24.36-10.86 24.36-24.72 0-3.04-.83-6.24-2.71-10.37l-88.54-199.93zm-71.28 130.79 38.39-91.43 38.39 91.43z"/><path d="m784.73 469.56v-68.28c0-4.15 3.2-7.35 7.35-7.35h48.24c3.56 0 6.52 2.96 6.52 6.52s-2.96 6.52-6.52 6.52h-41.01v21.58h27.17c3.56 0 6.52 2.96 6.52 6.63s-2.96 6.4-6.52 6.4h-27.17v22.28h41.61c3.56 0 6.52 2.96 6.52 6.52s-2.96 6.52-6.52 6.52h-48.84c-4.15 0-7.35-3.2-7.35-7.35z"/><path d="m876.01 400.81c0-4.03 3.2-7.35 7.35-7.35h1.54c3.2 0 5.33 1.66 6.76 3.91l25.13 39.35 25.25-39.47c1.54-2.49 3.68-3.8 6.64-3.8h1.54c4.15 0 7.35 3.32 7.35 7.35v69.46c0 4.03-3.2 7.23-7.35 7.23-3.91 0-7.23-3.32-7.23-7.23v-49.78l-20.27 30.46c-1.54 2.37-3.44 3.8-6.16 3.8s-4.5-1.42-6.05-3.8l-20.15-30.23v49.67c0 4.03-3.2 7.11-7.23 7.11s-7.11-3.08-7.11-7.11v-69.58z"/><path d="m1038.19 400.81c0-4.03 3.2-7.35 7.35-7.35h1.54c3.2 0 5.34 1.66 6.76 3.91l25.13 39.35 25.25-39.47c1.54-2.49 3.68-3.8 6.64-3.8h1.54c4.15 0 7.35 3.32 7.35 7.35v69.46c0 4.03-3.2 7.23-7.35 7.23-3.91 0-7.23-3.32-7.23-7.23v-49.78l-20.27 30.46c-1.54 2.37-3.44 3.8-6.16 3.8s-4.5-1.42-6.05-3.8l-20.15-30.23v49.67c0 4.03-3.2 7.11-7.23 7.11s-7.11-3.08-7.11-7.11v-69.58z"/><path d="m1149.27 435.66v-.24c0-23.35 18.02-42.91 43.5-42.91s43.27 19.32 43.27 42.67v.24c0 23.35-18.02 42.91-43.5 42.91s-43.27-19.32-43.27-42.67zm71.48 0v-.24c0-16.12-11.74-29.52-28.21-29.52s-27.98 13.16-27.98 29.28v.24c0 16.12 11.74 29.4 28.21 29.4s27.98-13.04 27.98-29.16z"/><path d="m1286.07 472.17-29.04-68.28c-.47-1.07-.83-2.13-.83-3.44 0-3.91 3.2-7.11 7.35-7.11 3.79 0 6.28 2.13 7.47 5.22l23.95 59.86 24.3-60.33c.95-2.49 3.56-4.74 6.99-4.74 4.03 0 7.23 3.08 7.23 6.99 0 1.07-.36 2.25-.71 3.08l-29.16 68.75c-1.54 3.68-4.27 5.93-8.42 5.93h-.83c-4.03 0-6.76-2.25-8.3-5.93z"/><path d="m1361.58 400.57c0-4.03 3.2-7.23 7.35-7.23s7.23 3.2 7.23 7.23v69.7c0 4.03-3.2 7.23-7.23 7.23s-7.35-3.2-7.35-7.23z"/><path d="m1410.19 400.81c0-4.03 3.2-7.35 7.35-7.35h1.54c3.2 0 5.34 1.66 6.76 3.91l25.13 39.35 25.25-39.47c1.54-2.49 3.68-3.8 6.64-3.8h1.54c4.15 0 7.35 3.32 7.35 7.35v69.46c0 4.03-3.2 7.23-7.35 7.23-3.91 0-7.23-3.32-7.23-7.23v-49.78l-20.27 30.46c-1.54 2.37-3.44 3.8-6.16 3.8s-4.5-1.42-6.05-3.8l-20.15-30.23v49.67c0 4.03-3.2 7.11-7.23 7.11s-7.11-3.08-7.11-7.11v-69.58z"/><path d="m1524.94 469.56v-68.28c0-4.15 3.2-7.35 7.35-7.35h48.24c3.56 0 6.52 2.96 6.52 6.52s-2.96 6.52-6.52 6.52h-41.01v21.58h27.18c3.55 0 6.52 2.96 6.52 6.63s-2.97 6.4-6.52 6.4h-27.18v22.28h41.61c3.56 0 6.52 2.96 6.52 6.52s-2.96 6.52-6.52 6.52h-48.84c-4.15 0-7.35-3.2-7.35-7.35z"/><path d="m1616.23 400.81c0-4.03 3.2-7.35 7.35-7.35h1.54c3.56 0 5.57 1.78 7.59 4.27l41.49 53.69v-50.97c0-3.91 3.2-7.11 7.11-7.11s7.23 3.2 7.23 7.11v69.7c0 4.03-3.08 7.23-7.11 7.23h-.59c-3.44 0-5.57-1.78-7.59-4.38l-42.67-55.24v52.63c0 3.91-3.2 7.11-7.11 7.11s-7.23-3.2-7.23-7.11v-69.58z"/><path d="m1742.13 407.45h-20.15c-3.79 0-6.75-3.08-6.75-6.75s2.96-6.76 6.75-6.76h55.12c3.68 0 6.64 3.08 6.64 6.76s-2.96 6.75-6.64 6.75h-20.27v62.82c0 4.03-3.32 7.23-7.35 7.23s-7.35-3.2-7.35-7.23z"/><path d="m1802.23 435.66v-.24c0-23.35 18.02-42.91 43.5-42.91s43.27 19.32 43.27 42.67v.24c0 23.35-18.02 42.91-43.5 42.91s-43.27-19.32-43.27-42.67zm71.48 0v-.24c0-16.12-11.74-29.52-28.21-29.52s-27.98 13.16-27.98 29.28v.24c0 16.12 11.74 29.4 28.21 29.4s27.98-13.04 27.98-29.16z"/><path d="m69.34 283.1c-5.64-5.64-8.75-13.14-8.75-21.11s3.11-15.47 8.75-21.11l154.94-154.94-20.76-20.76c-2.62-2.62-6.87-2.62-9.49 0l-192.06 192.06c-1.26 1.26-1.97 2.96-1.97 4.74s.71 3.48 1.97 4.74l192.07 192.07c1.31 1.31 3.03 1.97 4.74 1.97s3.43-.66 4.74-1.97l20.76-20.76-154.94-154.94z"/><path d="m656.2 257.24-192.07-192.07c-2.62-2.62-6.87-2.62-9.49 0l-20.76 20.76 154.94 154.94c5.64 5.64 8.75 13.14 8.75 21.11s-3.11 15.47-8.75 21.11l-154.94 154.94 20.76 20.76c1.26 1.26 2.96 1.97 4.74 1.97s3.49-.71 4.74-1.97l192.07-192.07c1.26-1.26 1.97-2.96 1.97-4.74s-.71-3.49-1.97-4.74z"/><path d="m584.23 245.47-238.63-238.63c-4.41-4.41-10.27-6.84-16.52-6.84s-12.11 2.43-16.51 6.84l-238.63 238.63c-4.41 4.41-6.84 10.28-6.84 16.51s2.43 12.1 6.84 16.51l238.63 238.63c4.41 4.41 10.27 6.84 16.52 6.84s12.11-2.43 16.51-6.84l238.63-238.63c4.41-4.41 6.84-10.28 6.84-16.52s-2.43-12.1-6.84-16.51zm-255.15-115.6c15.82 0 28.69 12.72 28.69 28.34s-12.87 28.34-28.69 28.34-28.69-12.71-28.69-28.34 12.87-28.34 28.69-28.34zm61.14 217.95c-17.02 0-33.42-5.82-46.18-16.39-1.8-1.49-2.91-3.59-3.12-5.91-.2-2.31.52-4.57 2.02-6.35 3.11-3.66 8.66-4.15 12.36-1.08 9.61 7.96 22.01 12.34 34.91 12.34 28.87 0 52.35-21.72 52.35-48.41s-23.49-48.41-52.35-48.41-52.35 21.72-52.35 48.41c0 36.28-31.37 65.8-69.92 65.8s-69.92-29.52-69.92-65.8 31.37-65.8 69.92-65.8c17.01 0 33.42 5.82 46.18 16.39 1.8 1.49 2.91 3.6 3.11 5.92.2 2.31-.52 4.57-2.02 6.35-3.11 3.66-8.65 4.15-12.36 1.08-9.61-7.96-22.01-12.34-34.91-12.34-28.87 0-52.35 21.72-52.35 48.41s23.49 48.41 52.35 48.41 52.36-21.72 52.36-48.41c0-36.28 31.37-65.8 69.92-65.8s69.92 29.52 69.92 65.8-31.37 65.8-69.92 65.8z"/></svg>