<svg viewBox="0 0 924.31 768.58" xmlns="http://www.w3.org/2000/svg"><path d="m677.75 304.49c-135.95 0-246.56 104.1-246.56 232.05 0 94.13-82.82 170.71-184.63 170.71s-184.62-76.58-184.62-170.71 82.82-170.71 184.62-170.71c45.52 0 89.24 15.46 123.12 43.51 13.1 10.83 32.63 9.11 43.59-3.8 5.32-6.28 7.85-14.23 7.14-22.39-.72-8.18-4.62-15.59-10.98-20.86-45.03-37.27-102.86-57.8-162.87-57.8-135.95 0-246.56 104.1-246.56 232.05s110.61 232.04 246.56 232.04 246.57-104.09 246.57-232.04c0-94.13 82.82-170.71 184.62-170.71s184.62 76.58 184.62 170.71-82.82 170.71-184.62 170.71c-45.52 0-89.23-15.46-123.12-43.51-13.05-10.82-32.61-9.12-43.59 3.8-5.32 6.28-7.86 14.23-7.14 22.4.73 8.19 4.63 15.59 10.99 20.85 45.01 37.26 102.84 57.79 162.85 57.79 135.95 0 246.56-104.09 246.56-232.04s-110.61-232.05-246.56-232.05z"/><path d="m462.16 0c-55.78 0-101.17 44.84-101.17 99.95s45.38 99.95 101.17 99.95 101.17-44.84 101.17-99.95-45.39-99.95-101.17-99.95z"/></svg>