<?xml version="1.0" encoding="UTF-8"?>
<!-- Generated by Pixelmator Pro 3.5.7 -->
<svg width="8199" height="2240" viewBox="0 0 8199 2240" xmlns="http://www.w3.org/2000/svg">
    <g id="Camada-4">
        <g id="Agrupar">
            <g id="g1">
                <path id="Traado" fill="#ffffff" stroke="none" d="M 3542.024902 1285.823975 C 3602.340332 1285.823975 3649.574951 1238.579834 3649.574951 1178.264771 L 3649.574951 869.974243 L 3992.971924 406.560669 C 4011.831299 380.139648 4021.451416 354.411255 4021.451416 330.205688 C 4021.451416 267.684326 3979.441406 225.674927 3916.928711 225.674927 C 3876.008545 225.674927 3842.788818 246.540771 3812.406006 291.336548 L 3543.512451 675.246582 L 3279.273438 294.442139 C 3247.281494 247.2854 3215.116943 227.196655 3171.653809 227.196655 C 3111.355713 227.196655 3064.120605 272.442017 3064.120605 330.205688 C 3064.120605 357.837402 3072.961914 383.323608 3091.12915 408.099854 L 3434.491455 874.541626 L 3434.491455 1178.264771 C 3434.491455 1238.579834 3481.726074 1285.823975 3542.024902 1285.823975 Z"/>
                <path id="path1" fill="#ffffff" stroke="none" d="M 4804.375977 218.121826 C 4493.161133 218.121826 4249.373047 454.608643 4249.373047 756.505737 L 4249.373047 759.53418 C 4249.373047 1064.744507 4486.672363 1294.898926 4801.365234 1294.898926 C 5112.580078 1294.898926 5356.368164 1058.412109 5356.368164 756.505737 L 5356.368164 753.495728 C 5356.368164 448.284302 5119.067871 218.121826 4804.375977 218.121826 Z M 5130.712402 759.53418 C 5130.712402 952.453003 4990.42627 1097.930298 4804.375977 1097.930298 C 4619.709473 1097.930298 4475.045898 947.954712 4475.045898 756.505737 L 4475.045898 753.495728 C 4475.045898 560.567627 4615.332031 415.07312 4801.365234 415.07312 C 4986.048828 415.07312 5130.712402 565.048706 5130.712402 756.505737 L 5130.712402 759.53418 Z"/>
                <path id="path2" fill="#ffffff" stroke="none" d="M 6587.557617 319.210205 C 6486.166992 248.392212 6379.637207 218.121826 6231.513184 218.121826 C 5925.367676 218.121826 5685.55957 454.608643 5685.55957 756.505737 L 5685.55957 759.53418 C 5685.55957 1074.745117 5910.678223 1294.898926 6233.001465 1294.898926 C 6362.750488 1294.898926 6485.803223 1259.731445 6598.752441 1190.376221 C 6652.319824 1158.513794 6676.162109 1115.171753 6676.162109 1049.786865 L 6676.162109 792.780029 C 6676.162109 732.4823 6628.927246 685.247192 6568.611816 685.247192 L 6213.968262 685.247192 C 6162.996582 685.247192 6121.540527 726.703369 6121.540527 777.666626 C 6121.540527 828.647339 6162.131348 868.589722 6213.968262 868.589722 L 6468.639648 868.589722 L 6468.639648 1033.177124 L 6464.954102 1035.823975 C 6405.573242 1078.439819 6327.973145 1100.966797 6240.562012 1100.966797 C 6049.73584 1100.966797 5911.231934 956.104004 5911.231934 756.505737 L 5911.231934 753.495728 C 5911.231934 566.890869 6051.518066 415.07312 6223.95166 415.07312 C 6316.847168 415.07312 6387.561523 437.263428 6460.403809 489.282715 C 6476.512207 501.004517 6495.596191 511.817871 6526.290527 511.817871 C 6584.772461 511.817871 6632.335938 464.25415 6632.335938 405.781494 C 6632.335938 357.24939 6601.019043 329.07251 6587.557617 319.210205 Z"/>
                <path id="path3" fill="#ffffff" stroke="none" d="M 7646.002441 306.580078 C 7620.567871 249.70752 7576.828125 219.636475 7519.557617 219.636475 L 7505.958008 219.636475 C 7448.532227 219.636475 7403.079102 250.520264 7377.974609 306.605469 L 7009.108398 1139.611206 C 7002.776367 1153.539429 6996.305176 1169.924316 6996.305176 1185.825073 C 6996.305176 1241.9021 7039.54248 1285.823975 7094.753906 1285.823975 C 7139.290527 1285.823975 7175.45166 1261.323486 7193.96582 1218.60498 L 7270.319824 1039.41394 L 7747.618652 1039.41394 L 7820.97998 1211.086426 C 7842.659668 1260.657227 7877.574707 1285.823975 7924.706055 1285.823975 C 7981.613281 1285.823975 8026.20166 1240.578613 8026.20166 1182.814941 C 8026.20166 1170.132935 8022.723633 1156.800781 8014.902832 1139.611206 L 7646.002441 306.580078 Z M 7349.010254 851.538574 L 7508.986328 470.578491 L 7668.928223 851.538574 L 7349.010254 851.538574 Z"/>
                <g id="g2">
                    <path id="path4" fill="#ffffff" stroke="none" d="M 3433.930908 1984.452759 L 3433.930908 1699.971924 C 3433.930908 1682.681641 3447.262695 1669.341553 3464.552246 1669.341553 L 3665.563477 1669.341553 C 3680.380859 1669.341553 3692.725586 1681.685791 3692.725586 1696.503174 C 3692.725586 1711.818848 3680.380859 1723.664795 3665.563477 1723.664795 L 3494.67627 1723.664795 L 3494.67627 1813.56543 L 3607.903076 1813.56543 C 3622.720459 1813.56543 3635.064697 1825.909912 3635.064697 1841.206299 C 3635.064697 1856.02356 3622.720459 1867.888794 3607.903076 1867.888794 L 3494.67627 1867.888794 L 3494.67627 1960.741577 L 3668.036377 1960.741577 C 3682.85376 1960.741577 3695.197998 1973.085938 3695.197998 1987.90332 C 3695.197998 2003.218994 3682.85376 2015.064941 3668.036377 2015.064941 L 3464.552246 2015.064941 C 3447.262695 2015.064941 3433.930908 2001.723633 3433.930908 1984.452759 Z"/>
                    <path id="path5" fill="#ffffff" stroke="none" d="M 3814.271484 1697.979248 C 3814.271484 1681.187378 3827.60376 1667.366943 3844.893555 1667.366943 L 3851.314941 1667.366943 C 3864.646484 1667.366943 3873.540771 1674.286377 3879.463867 1683.6604 L 3984.162842 1847.628174 L 4089.360107 1683.180176 C 4095.781494 1672.791992 4104.675293 1667.366943 4117.02002 1667.366943 L 4123.441406 1667.366943 C 4140.731445 1667.366943 4154.072754 1681.187378 4154.072754 1697.979248 L 4154.072754 1987.404785 C 4154.072754 2004.196655 4140.731445 2017.537842 4123.441406 2017.537842 C 4107.148438 2017.537842 4093.308594 2003.69812 4093.308594 1987.404785 L 4093.308594 1779.981934 L 4008.870605 1906.897461 C 4002.448975 1916.788086 3994.533447 1922.710571 3983.184814 1922.710571 C 3972.31665 1922.710571 3964.418701 1916.788086 3957.99707 1906.897461 L 3874.038818 1780.959473 L 3874.038818 1987.90332 C 3874.038818 2004.695068 3860.697998 2017.537842 3843.90625 2017.537842 C 3827.114502 2017.537842 3814.271484 2004.695068 3814.271484 1987.90332 L 3814.271484 1697.979248 Z"/>
                    <path id="path6" fill="#ffffff" stroke="none" d="M 4489.998535 1697.979248 C 4489.998535 1681.187378 4503.339844 1667.366943 4520.611328 1667.366943 L 4527.032715 1667.366943 C 4540.373047 1667.366943 4549.267578 1674.286377 4555.19043 1683.6604 L 4659.889648 1847.628174 L 4765.086914 1683.180176 C 4771.508301 1672.791992 4780.402344 1667.366943 4792.74707 1667.366943 L 4799.168457 1667.366943 C 4816.458008 1667.366943 4829.799316 1681.187378 4829.799316 1697.979248 L 4829.799316 1987.404785 C 4829.799316 2004.196655 4816.458008 2017.537842 4799.168457 2017.537842 C 4782.875 2017.537842 4769.035156 2003.69812 4769.035156 1987.404785 L 4769.035156 1779.981934 L 4684.597168 1906.897461 C 4678.175781 1916.788086 4670.260254 1922.710571 4658.911621 1922.710571 C 4648.043457 1922.710571 4640.145508 1916.788086 4633.724121 1906.897461 L 4549.765625 1780.959473 L 4549.765625 1987.90332 C 4549.765625 2004.695068 4536.424805 2017.537842 4519.632813 2017.537842 C 4502.841309 2017.537842 4489.998535 2004.695068 4489.998535 1987.90332 L 4489.998535 1697.979248 Z"/>
                    <path id="path7" fill="#ffffff" stroke="none" d="M 4952.840332 1843.199097 L 4952.840332 1842.203125 C 4952.840332 1744.904053 5027.922852 1663.417969 5134.097656 1663.417969 C 5240.291504 1663.417969 5314.37793 1743.925415 5314.37793 1841.206299 L 5314.37793 1842.203125 C 5314.37793 1939.502441 5239.294922 2020.988403 5133.119629 2020.988403 C 5026.92627 2020.988403 4952.840332 1940.480957 4952.840332 1843.199097 Z M 5250.661621 1843.199097 L 5250.661621 1842.203125 C 5250.661621 1775.036011 5201.763184 1719.218384 5133.119629 1719.218384 C 5064.458984 1719.218384 5016.556152 1774.040161 5016.556152 1841.206299 L 5016.556152 1842.203125 C 5016.556152 1909.370361 5065.455078 1964.690552 5134.097656 1964.690552 C 5202.759277 1964.690552 5250.661621 1910.366211 5250.661621 1843.199097 Z"/>
                    <path id="path8" fill="#ffffff" stroke="none" d="M 5522.834473 1995.302734 L 5401.842285 1710.822021 C 5399.867676 1706.374512 5398.373047 1701.946533 5398.373047 1696.503174 C 5398.373047 1680.209717 5411.714355 1666.86853 5429.003906 1666.86853 C 5444.799316 1666.86853 5455.169922 1675.762451 5460.115234 1688.605225 L 5559.886719 1938.026367 L 5661.135254 1686.630615 C 5665.083984 1676.260742 5675.952637 1666.86853 5690.271484 1666.86853 C 5707.063477 1666.86853 5720.404785 1679.711426 5720.404785 1696.004639 C 5720.404785 1700.452148 5718.909668 1705.396973 5717.433594 1708.847412 L 5595.942871 1995.302734 C 5589.521484 2010.61853 5578.155273 2020.010864 5560.864746 2020.010864 L 5557.414063 2020.010864 C 5540.622559 2020.010864 5529.256348 2010.61853 5522.834473 1995.302734 Z"/>
                    <path id="path9" fill="#ffffff" stroke="none" d="M 5837.484863 1697.001587 C 5837.484863 1680.209717 5850.826172 1666.86853 5868.115723 1666.86853 C 5884.907715 1666.86853 5898.22998 1680.209717 5898.22998 1697.001587 L 5898.22998 1987.404785 C 5898.22998 2004.196655 5884.907715 2017.537842 5868.115723 2017.537842 C 5850.826172 2017.537842 5837.484863 2004.196655 5837.484863 1987.404785 L 5837.484863 1697.001587 Z"/>
                    <path id="path10" fill="#ffffff" stroke="none" d="M 6040.018066 1697.979248 C 6040.018066 1681.187378 6053.359375 1667.366943 6070.630859 1667.366943 L 6077.052246 1667.366943 C 6090.393555 1667.366943 6099.287598 1674.286377 6105.210938 1683.6604 L 6209.909668 1847.628174 L 6315.106934 1683.180176 C 6321.52832 1672.791992 6330.421875 1667.366943 6342.76709 1667.366943 L 6349.188477 1667.366943 C 6366.478027 1667.366943 6379.819336 1681.187378 6379.819336 1697.979248 L 6379.819336 1987.404785 C 6379.819336 2004.196655 6366.478027 2017.537842 6349.188477 2017.537842 C 6332.89502 2017.537842 6319.055664 2003.69812 6319.055664 1987.404785 L 6319.055664 1779.981934 L 6234.617188 1906.897461 C 6228.195801 1916.788086 6220.279785 1922.710571 6208.931641 1922.710571 C 6198.062988 1922.710571 6190.165527 1916.788086 6183.744141 1906.897461 L 6099.786133 1780.959473 L 6099.786133 1987.90332 C 6099.786133 2004.695068 6086.444824 2017.537842 6069.652832 2017.537842 C 6052.86084 2017.537842 6040.018066 2004.695068 6040.018066 1987.90332 L 6040.018066 1697.979248 Z"/>
                    <path id="path11" fill="#ffffff" stroke="none" d="M 6518.157227 1984.452759 L 6518.157227 1699.971924 C 6518.157227 1682.681641 6531.498047 1669.341553 6548.769531 1669.341553 L 6749.790039 1669.341553 C 6764.607422 1669.341553 6776.95166 1681.685791 6776.95166 1696.503174 C 6776.95166 1711.818848 6764.607422 1723.664795 6749.790039 1723.664795 L 6578.902344 1723.664795 L 6578.902344 1813.56543 L 6692.138184 1813.56543 C 6706.937012 1813.56543 6719.300293 1825.909912 6719.300293 1841.206299 C 6719.300293 1856.02356 6706.937012 1867.888794 6692.138184 1867.888794 L 6578.902344 1867.888794 L 6578.902344 1960.741577 L 6752.262207 1960.741577 C 6767.07959 1960.741577 6779.424805 1973.085938 6779.424805 1987.90332 C 6779.424805 2003.218994 6767.07959 2015.064941 6752.262207 2015.064941 L 6548.769531 2015.064941 C 6531.498047 2015.064941 6518.157227 2001.723633 6518.157227 1984.452759 Z"/>
                    <path id="path12" fill="#ffffff" stroke="none" d="M 6898.497559 1697.979248 C 6898.497559 1681.187378 6911.838867 1667.366943 6929.11084 1667.366943 L 6935.531738 1667.366943 C 6950.349121 1667.366943 6958.745605 1674.766479 6967.140625 1685.154663 L 7140.002441 1908.871826 L 7140.002441 1696.503174 C 7140.002441 1680.209717 7153.34375 1666.86853 7169.637207 1666.86853 C 7186.428711 1666.86853 7199.77002 1680.209717 7199.77002 1696.503174 L 7199.77002 1986.906372 C 7199.77002 2003.69812 7186.927246 2017.039429 7170.135742 2017.039429 L 7167.662598 2017.039429 C 7153.34375 2017.039429 7144.449707 2009.639893 7136.053711 1998.771606 L 6958.265137 1768.615112 L 6958.265137 1987.90332 C 6958.265137 2004.196655 6944.923828 2017.537842 6928.630859 2017.537842 C 6911.838867 2017.537842 6898.497559 2004.196655 6898.497559 1987.90332 L 6898.497559 1697.979248 Z"/>
                    <path id="path13" fill="#ffffff" stroke="none" d="M 7423.081543 1725.639282 L 7339.104492 1725.639282 C 7323.30957 1725.639282 7310.963867 1712.796387 7310.963867 1697.499023 C 7310.963867 1682.184326 7323.30957 1669.341553 7339.104492 1669.341553 L 7568.762207 1669.341553 C 7584.078125 1669.341553 7596.422363 1682.184326 7596.422363 1697.499023 C 7596.422363 1712.796387 7584.078125 1725.639282 7568.762207 1725.639282 L 7484.324219 1725.639282 L 7484.324219 1987.404785 C 7484.324219 2004.196655 7470.485352 2017.537842 7453.693848 2017.537842 C 7436.901855 2017.537842 7423.081543 2004.196655 7423.081543 1987.404785 L 7423.081543 1725.639282 Z"/>
                    <path id="path14" fill="#ffffff" stroke="none" d="M 7673.51709 1843.199097 L 7673.51709 1842.203125 C 7673.51709 1744.904053 7748.599121 1663.417969 7854.774902 1663.417969 C 7960.968262 1663.417969 8035.054688 1743.925415 8035.054688 1841.206299 L 8035.054688 1842.203125 C 8035.054688 1939.502441 7959.972168 2020.988403 7853.796387 2020.988403 C 7747.603516 2020.988403 7673.51709 1940.480957 7673.51709 1843.199097 Z M 7971.338867 1843.199097 L 7971.338867 1842.203125 C 7971.338867 1775.036011 7922.439453 1719.218384 7853.796387 1719.218384 C 7785.135742 1719.218384 7737.233398 1774.040161 7737.233398 1841.206299 L 7737.233398 1842.203125 C 7737.233398 1909.370361 7786.131836 1964.690552 7854.774902 1964.690552 C 7923.436523 1964.690552 7971.338867 1910.366211 7971.338867 1843.199097 Z"/>
                </g>
            </g>
            <g id="g3">
                <g id="g4">
                    <path id="path15" fill="#ffffff" stroke="none" d="M 2910.608887 1099.701416 L 2106.739014 295.844971 C 2095.77124 284.876953 2078.003418 284.876953 2067.035645 295.844971 L 1263.179565 1099.701416 C 1252.211792 1110.669434 1252.211792 1128.436768 1263.179565 1139.404785 L 2067.035645 1943.274414 C 2072.300293 1948.538574 2079.442871 1951.500854 2086.887451 1951.500854 C 2094.331787 1951.500854 2101.474609 1948.538574 2106.739014 1943.274414 L 2910.608887 1139.404785 C 2915.873779 1134.140503 2918.834961 1126.997314 2918.834961 1119.553101 C 2918.834961 1112.108765 2915.873779 1104.965698 2910.608887 1099.701416 Z"/>
                    <path id="path16" fill="#ffffff" stroke="none" d="M 1819.890381 1099.701416 L 1016.020508 295.844971 C 1005.052734 284.876953 987.284912 284.876953 976.317139 295.844971 L 172.44751 1099.701416 C 167.182968 1104.965698 164.221497 1112.108765 164.221497 1119.553101 C 164.221497 1126.997314 167.182968 1134.140503 172.44751 1139.404785 L 976.317139 1943.274414 C 981.801147 1948.758301 988.984985 1951.500854 996.168823 1951.500854 C 1003.352905 1951.500854 1010.536743 1948.758301 1016.020508 1943.274414 L 1819.890381 1139.404785 C 1825.154907 1134.140503 1828.116455 1126.997314 1828.116455 1119.553101 C 1828.116455 1112.108765 1825.154907 1104.965698 1819.890381 1099.701416 Z"/>
                </g>
                <path id="path17" fill="#3c3a4f" stroke="none" d="M 2594.583252 1065.237915 L 1595.846924 66.500244 C 1565.864136 36.490234 1517.19397 36.490234 1487.211182 66.500244 L 488.473053 1065.237915 C 458.462311 1095.234619 458.462311 1143.877563 488.473053 1173.87439 L 1487.211182 2172.611816 C 1502.202637 2187.616455 1521.87146 2195.117676 1541.529907 2195.117676 C 1561.185059 2195.117676 1580.855591 2187.616455 1595.846924 2172.611816 L 2594.583252 1173.87439 C 2624.594238 1143.877563 2624.594238 1095.234619 2594.583252 1065.237915 Z"/>
                <path id="path18" fill="#ffffff" stroke="none" d="M 1797.407104 927.983032 C 1636.055054 927.983032 1504.776611 1051.529419 1504.776611 1203.390991 C 1504.776611 1315.107666 1406.481934 1405.993164 1285.649414 1405.993164 C 1164.82959 1405.993164 1066.535278 1315.107666 1066.535278 1203.390991 C 1066.535278 1091.673218 1164.82959 1000.781738 1285.649414 1000.781738 C 1339.67041 1000.781738 1391.557373 1019.124756 1431.773682 1052.425537 C 1447.317261 1065.275513 1470.501221 1063.23999 1483.502563 1047.914063 C 1489.812256 1040.464722 1492.815674 1031.026611 1491.972656 1021.338379 C 1491.116333 1011.629639 1486.492676 1002.836548 1478.944946 996.580444 C 1425.503296 952.346191 1356.860718 927.983032 1285.649414 927.983032 C 1124.297363 927.983032 993.018677 1051.529419 993.018677 1203.390991 C 993.018677 1355.245361 1124.297363 1478.784668 1285.649414 1478.784668 C 1447.014404 1478.784668 1578.293213 1355.245361 1578.293213 1203.390991 C 1578.293213 1091.673218 1676.587524 1000.781738 1797.407104 1000.781738 C 1918.226685 1000.781738 2016.520996 1091.673218 2016.520996 1203.390991 C 2016.520996 1315.107666 1918.226685 1405.993164 1797.407104 1405.993164 C 1743.385864 1405.993164 1691.498901 1387.649902 1651.282837 1354.349121 C 1635.791626 1341.512451 1612.581421 1343.527588 1599.553711 1358.860718 C 1593.244019 1366.310059 1590.227539 1375.755249 1591.083618 1385.443604 C 1591.953125 1395.158325 1596.576782 1403.944336 1604.124512 1410.194336 C 1657.539673 1454.422363 1726.182373 1478.784668 1797.407104 1478.784668 C 1958.758911 1478.784668 2090.037598 1355.245361 2090.037598 1203.390991 C 2090.037598 1051.529419 1958.758911 927.983032 1797.407104 927.983032 Z"/>
                <path id="path19" fill="#ffffff" stroke="none" d="M 1541.528076 566.599976 C 1475.320801 566.599976 1421.456177 619.816528 1421.456177 685.227905 C 1421.456177 750.639282 1475.320801 803.85376 1541.528076 803.85376 C 1607.737305 803.85376 1661.600342 750.639282 1661.600342 685.227905 C 1661.600342 619.816528 1607.737305 566.599976 1541.528076 566.599976 Z"/>
            </g>
        </g>
    </g>
    <g id="Camada-3">
        <g id="g5">
            <g id="g6">
                <path id="path20" fill="#b09ecc" stroke="none" d="M 3542.024902 -1468.343262 C 3602.340332 -1468.343262 3649.574951 -1515.586914 3649.574951 -1575.902344 L 3649.574951 -1884.192871 L 3992.971924 -2347.606445 C 4011.831299 -2374.026367 4021.451416 -2399.754883 4021.451416 -2423.960938 C 4021.451416 -2486.482422 3979.441406 -2528.492188 3916.928711 -2528.492188 C 3876.008545 -2528.492188 3842.788818 -2507.625977 3812.406006 -2462.830078 L 3543.512451 -2078.92041 L 3279.273438 -2459.724609 C 3247.281494 -2506.881836 3215.116943 -2526.969238 3171.653809 -2526.969238 C 3111.355713 -2526.969238 3064.120605 -2481.724121 3064.120605 -2423.960938 C 3064.120605 -2396.329102 3072.961914 -2370.843262 3091.12915 -2346.066406 L 3434.491455 -1879.625 L 3434.491455 -1575.902344 C 3434.491455 -1515.586914 3481.726074 -1468.343262 3542.024902 -1468.343262 Z"/>
                <path id="path21" fill="#b09ecc" stroke="none" d="M 4804.375977 -2536.044434 C 4493.161133 -2536.044434 4249.373047 -2299.558105 4249.373047 -1997.661133 L 4249.373047 -1994.632324 C 4249.373047 -1689.422119 4486.672363 -1459.268311 4801.365234 -1459.268311 C 5112.580078 -1459.268311 5356.368164 -1695.754639 5356.368164 -1997.661133 L 5356.368164 -2000.671387 C 5356.368164 -2305.881836 5119.067871 -2536.044434 4804.375977 -2536.044434 Z M 5130.712402 -1994.632324 C 5130.712402 -1801.713135 4990.42627 -1656.236328 4804.375977 -1656.236328 C 4619.709473 -1656.236328 4475.045898 -1806.211914 4475.045898 -1997.661133 L 4475.045898 -2000.671387 C 4475.045898 -2193.599609 4615.332031 -2339.09375 4801.365234 -2339.09375 C 4986.048828 -2339.09375 5130.712402 -2189.118164 5130.712402 -1997.661133 L 5130.712402 -1994.632324 Z"/>
                <path id="path22" fill="#b09ecc" stroke="none" d="M 6587.557617 -2434.956543 C 6486.166992 -2505.774414 6379.637207 -2536.044434 6231.513184 -2536.044434 C 5925.367676 -2536.044434 5685.55957 -2299.558105 5685.55957 -1997.661133 L 5685.55957 -1994.632324 C 5685.55957 -1679.421631 5910.678223 -1459.268311 6233.001465 -1459.268311 C 6362.750488 -1459.268311 6485.803223 -1494.43457 6598.752441 -1563.790527 C 6652.319824 -1595.652832 6676.162109 -1638.994873 6676.162109 -1704.379883 L 6676.162109 -1961.386719 C 6676.162109 -2021.685059 6628.927246 -2068.919922 6568.611816 -2068.919922 L 6213.968262 -2068.919922 C 6162.996582 -2068.919922 6121.540527 -2027.463867 6121.540527 -1976.5 C 6121.540527 -1925.519531 6162.131348 -1885.577148 6213.968262 -1885.577148 L 6468.639648 -1885.577148 L 6468.639648 -1720.98999 L 6464.954102 -1718.342773 C 6405.573242 -1675.727295 6327.973145 -1653.199951 6240.562012 -1653.199951 C 6049.73584 -1653.199951 5911.231934 -1798.062744 5911.231934 -1997.661133 L 5911.231934 -2000.671387 C 5911.231934 -2187.275391 6051.518066 -2339.09375 6223.95166 -2339.09375 C 6316.847168 -2339.09375 6387.561523 -2316.903809 6460.403809 -2264.884277 C 6476.512207 -2253.162109 6495.596191 -2242.348145 6526.290527 -2242.348145 C 6584.772461 -2242.348145 6632.335938 -2289.912109 6632.335938 -2348.384766 C 6632.335938 -2396.917969 6601.019043 -2425.094238 6587.557617 -2434.956543 Z"/>
                <path id="path23" fill="#b09ecc" stroke="none" d="M 7646.002441 -2447.586914 C 7620.567871 -2504.458984 7576.828125 -2534.530762 7519.557617 -2534.530762 L 7505.958008 -2534.530762 C 7448.532227 -2534.530762 7403.079102 -2503.646484 7377.974609 -2447.561035 L 7009.108398 -1614.55542 C 7002.776367 -1600.627197 6996.305176 -1584.241699 6996.305176 -1568.341064 C 6996.305176 -1512.264648 7039.54248 -1468.343262 7094.753906 -1468.343262 C 7139.290527 -1468.343262 7175.45166 -1492.843262 7193.96582 -1535.562256 L 7270.319824 -1714.752197 L 7747.618652 -1714.752197 L 7820.97998 -1543.080322 C 7842.659668 -1493.509033 7877.574707 -1468.343262 7924.706055 -1468.343262 C 7981.613281 -1468.343262 8026.20166 -1513.588623 8026.20166 -1571.351807 C 8026.20166 -1584.03418 8022.723633 -1597.365479 8014.902832 -1614.55542 L 7646.002441 -2447.586914 Z M 7349.010254 -1902.62793 L 7508.986328 -2283.588379 L 7668.928223 -1902.62793 L 7349.010254 -1902.62793 Z"/>
                <g id="g7">
                    <path id="path24" fill="#b09ecc" stroke="none" d="M 3433.930908 -769.713867 L 3433.930908 -1054.194824 C 3433.930908 -1071.484375 3447.262695 -1084.825684 3464.552246 -1084.825684 L 3665.563477 -1084.825684 C 3680.380859 -1084.825684 3692.725586 -1072.480957 3692.725586 -1057.663574 C 3692.725586 -1042.348389 3680.380859 -1030.501953 3665.563477 -1030.501953 L 3494.67627 -1030.501953 L 3494.67627 -940.601563 L 3607.903076 -940.601563 C 3622.720459 -940.601563 3635.064697 -928.256836 3635.064697 -912.959961 C 3635.064697 -898.142578 3622.720459 -886.277832 3607.903076 -886.277832 L 3494.67627 -886.277832 L 3494.67627 -793.425537 L 3668.036377 -793.425537 C 3682.85376 -793.425537 3695.197998 -781.080811 3695.197998 -766.263428 C 3695.197998 -750.948242 3682.85376 -739.101318 3668.036377 -739.101318 L 3464.552246 -739.101318 C 3447.262695 -739.101318 3433.930908 -752.442383 3433.930908 -769.713867 Z"/>
                    <path id="path25" fill="#b09ecc" stroke="none" d="M 3814.271484 -1056.1875 C 3814.271484 -1072.979248 3827.60376 -1086.800293 3844.893555 -1086.800293 L 3851.314941 -1086.800293 C 3864.646484 -1086.800293 3873.540771 -1079.880371 3879.463867 -1070.506348 L 3984.162842 -906.538574 L 4089.360107 -1070.986572 C 4095.781494 -1081.375244 4104.675293 -1086.800293 4117.02002 -1086.800293 L 4123.441406 -1086.800293 C 4140.731445 -1086.800293 4154.072754 -1072.979248 4154.072754 -1056.1875 L 4154.072754 -766.761963 C 4154.072754 -749.969971 4140.731445 -736.628906 4123.441406 -736.628906 C 4107.148438 -736.628906 4093.308594 -750.468018 4093.308594 -766.761963 L 4093.308594 -974.185303 L 4008.870605 -847.269287 C 4002.448975 -837.378906 3994.533447 -831.455566 3983.184814 -831.455566 C 3972.31665 -831.455566 3964.418701 -837.378906 3957.99707 -847.269287 L 3874.038818 -973.207275 L 3874.038818 -766.263428 C 3874.038818 -749.47168 3860.697998 -736.628906 3843.90625 -736.628906 C 3827.114502 -736.628906 3814.271484 -749.47168 3814.271484 -766.263428 L 3814.271484 -1056.1875 Z"/>
                    <path id="path26" fill="#b09ecc" stroke="none" d="M 4489.998535 -1056.1875 C 4489.998535 -1072.979248 4503.339844 -1086.800293 4520.611328 -1086.800293 L 4527.032715 -1086.800293 C 4540.373047 -1086.800293 4549.267578 -1079.880371 4555.19043 -1070.506348 L 4659.889648 -906.538574 L 4765.086914 -1070.986572 C 4771.508301 -1081.375244 4780.402344 -1086.800293 4792.74707 -1086.800293 L 4799.168457 -1086.800293 C 4816.458008 -1086.800293 4829.799316 -1072.979248 4829.799316 -1056.1875 L 4829.799316 -766.761963 C 4829.799316 -749.969971 4816.458008 -736.628906 4799.168457 -736.628906 C 4782.875 -736.628906 4769.035156 -750.468018 4769.035156 -766.761963 L 4769.035156 -974.185303 L 4684.597168 -847.269287 C 4678.175781 -837.378906 4670.260254 -831.455566 4658.911621 -831.455566 C 4648.043457 -831.455566 4640.145508 -837.378906 4633.724121 -847.269287 L 4549.765625 -973.207275 L 4549.765625 -766.263428 C 4549.765625 -749.47168 4536.424805 -736.628906 4519.632813 -736.628906 C 4502.841309 -736.628906 4489.998535 -749.47168 4489.998535 -766.263428 L 4489.998535 -1056.1875 Z"/>
                    <path id="path27" fill="#b09ecc" stroke="none" d="M 4952.840332 -910.967041 L 4952.840332 -911.963379 C 4952.840332 -1009.263184 5027.922852 -1090.748779 5134.097656 -1090.748779 C 5240.291504 -1090.748779 5314.37793 -1010.241211 5314.37793 -912.959961 L 5314.37793 -911.963379 C 5314.37793 -814.664307 5239.294922 -733.178223 5133.119629 -733.178223 C 5026.92627 -733.178223 4952.840332 -813.686279 4952.840332 -910.967041 Z M 5250.661621 -910.967041 L 5250.661621 -911.963379 C 5250.661621 -979.130127 5201.763184 -1034.94873 5133.119629 -1034.94873 C 5064.458984 -1034.94873 5016.556152 -980.126465 5016.556152 -912.959961 L 5016.556152 -911.963379 C 5016.556152 -844.796875 5065.455078 -789.476563 5134.097656 -789.476563 C 5202.759277 -789.476563 5250.661621 -843.800537 5250.661621 -910.967041 Z"/>
                    <path id="path28" fill="#b09ecc" stroke="none" d="M 5522.834473 -758.864014 L 5401.842285 -1043.344727 C 5399.867676 -1047.791504 5398.373047 -1052.220215 5398.373047 -1057.663574 C 5398.373047 -1073.957275 5411.714355 -1087.298096 5429.003906 -1087.298096 C 5444.799316 -1087.298096 5455.169922 -1078.404297 5460.115234 -1065.561523 L 5559.886719 -816.140381 L 5661.135254 -1067.5354 C 5665.083984 -1077.905762 5675.952637 -1087.298096 5690.271484 -1087.298096 C 5707.063477 -1087.298096 5720.404785 -1074.455322 5720.404785 -1058.162109 C 5720.404785 -1053.715088 5718.909668 -1048.769775 5717.433594 -1045.319092 L 5595.942871 -758.864014 C 5589.521484 -743.548584 5578.155273 -734.15625 5560.864746 -734.15625 L 5557.414063 -734.15625 C 5540.622559 -734.15625 5529.256348 -743.548584 5522.834473 -758.864014 Z"/>
                    <path id="path29" fill="#b09ecc" stroke="none" d="M 5837.484863 -1057.165527 C 5837.484863 -1073.957275 5850.826172 -1087.298096 5868.115723 -1087.298096 C 5884.907715 -1087.298096 5898.22998 -1073.957275 5898.22998 -1057.165527 L 5898.22998 -766.761963 C 5898.22998 -749.969971 5884.907715 -736.628906 5868.115723 -736.628906 C 5850.826172 -736.628906 5837.484863 -749.969971 5837.484863 -766.761963 L 5837.484863 -1057.165527 Z"/>
                    <path id="path30" fill="#b09ecc" stroke="none" d="M 6040.018066 -1056.1875 C 6040.018066 -1072.979248 6053.359375 -1086.800293 6070.630859 -1086.800293 L 6077.052246 -1086.800293 C 6090.393555 -1086.800293 6099.287598 -1079.880371 6105.210938 -1070.506348 L 6209.909668 -906.538574 L 6315.106934 -1070.986572 C 6321.52832 -1081.375244 6330.421875 -1086.800293 6342.76709 -1086.800293 L 6349.188477 -1086.800293 C 6366.478027 -1086.800293 6379.819336 -1072.979248 6379.819336 -1056.1875 L 6379.819336 -766.761963 C 6379.819336 -749.969971 6366.478027 -736.628906 6349.188477 -736.628906 C 6332.89502 -736.628906 6319.055664 -750.468018 6319.055664 -766.761963 L 6319.055664 -974.185303 L 6234.617188 -847.269287 C 6228.195801 -837.378906 6220.279785 -831.455566 6208.931641 -831.455566 C 6198.062988 -831.455566 6190.165527 -837.378906 6183.744141 -847.269287 L 6099.786133 -973.207275 L 6099.786133 -766.263428 C 6099.786133 -749.47168 6086.444824 -736.628906 6069.652832 -736.628906 C 6052.86084 -736.628906 6040.018066 -749.47168 6040.018066 -766.263428 L 6040.018066 -1056.1875 Z"/>
                    <path id="path31" fill="#b09ecc" stroke="none" d="M 6518.157227 -769.713867 L 6518.157227 -1054.194824 C 6518.157227 -1071.484375 6531.498047 -1084.825684 6548.769531 -1084.825684 L 6749.790039 -1084.825684 C 6764.607422 -1084.825684 6776.95166 -1072.480957 6776.95166 -1057.663574 C 6776.95166 -1042.348389 6764.607422 -1030.501953 6749.790039 -1030.501953 L 6578.902344 -1030.501953 L 6578.902344 -940.601563 L 6692.138184 -940.601563 C 6706.937012 -940.601563 6719.300293 -928.256836 6719.300293 -912.959961 C 6719.300293 -898.142578 6706.937012 -886.277832 6692.138184 -886.277832 L 6578.902344 -886.277832 L 6578.902344 -793.425537 L 6752.262207 -793.425537 C 6767.07959 -793.425537 6779.424805 -781.080811 6779.424805 -766.263428 C 6779.424805 -750.948242 6767.07959 -739.101318 6752.262207 -739.101318 L 6548.769531 -739.101318 C 6531.498047 -739.101318 6518.157227 -752.442383 6518.157227 -769.713867 Z"/>
                    <path id="path32" fill="#b09ecc" stroke="none" d="M 6898.497559 -1056.1875 C 6898.497559 -1072.979248 6911.838867 -1086.800293 6929.11084 -1086.800293 L 6935.531738 -1086.800293 C 6950.349121 -1086.800293 6958.745605 -1079.400635 6967.140625 -1069.011963 L 7140.002441 -845.295166 L 7140.002441 -1057.663574 C 7140.002441 -1073.957275 7153.34375 -1087.298096 7169.637207 -1087.298096 C 7186.428711 -1087.298096 7199.77002 -1073.957275 7199.77002 -1057.663574 L 7199.77002 -767.259766 C 7199.77002 -750.468018 7186.927246 -737.127197 7170.135742 -737.127197 L 7167.662598 -737.127197 C 7153.34375 -737.127197 7144.449707 -744.526123 7136.053711 -755.39502 L 6958.265137 -985.551514 L 6958.265137 -766.263428 C 6958.265137 -749.969971 6944.923828 -736.628906 6928.630859 -736.628906 C 6911.838867 -736.628906 6898.497559 -749.969971 6898.497559 -766.263428 L 6898.497559 -1056.1875 Z"/>
                    <path id="path33" fill="#b09ecc" stroke="none" d="M 7423.081543 -1028.527344 L 7339.104492 -1028.527344 C 7323.30957 -1028.527344 7310.963867 -1041.370117 7310.963867 -1056.667236 C 7310.963867 -1071.98291 7323.30957 -1084.825684 7339.104492 -1084.825684 L 7568.762207 -1084.825684 C 7584.078125 -1084.825684 7596.422363 -1071.98291 7596.422363 -1056.667236 C 7596.422363 -1041.370117 7584.078125 -1028.527344 7568.762207 -1028.527344 L 7484.324219 -1028.527344 L 7484.324219 -766.761963 C 7484.324219 -749.969971 7470.485352 -736.628906 7453.693848 -736.628906 C 7436.901855 -736.628906 7423.081543 -749.969971 7423.081543 -766.761963 L 7423.081543 -1028.527344 Z"/>
                    <path id="path34" fill="#b09ecc" stroke="none" d="M 7673.51709 -910.967041 L 7673.51709 -911.963379 C 7673.51709 -1009.263184 7748.599121 -1090.748779 7854.774902 -1090.748779 C 7960.968262 -1090.748779 8035.054688 -1010.241211 8035.054688 -912.959961 L 8035.054688 -911.963379 C 8035.054688 -814.664307 7959.972168 -733.178223 7853.796387 -733.178223 C 7747.603516 -733.178223 7673.51709 -813.686279 7673.51709 -910.967041 Z M 7971.338867 -910.967041 L 7971.338867 -911.963379 C 7971.338867 -979.130127 7922.439453 -1034.94873 7853.796387 -1034.94873 C 7785.135742 -1034.94873 7737.233398 -980.126465 7737.233398 -912.959961 L 7737.233398 -911.963379 C 7737.233398 -844.796875 7786.131836 -789.476563 7854.774902 -789.476563 C 7923.436523 -789.476563 7971.338867 -843.800537 7971.338867 -910.967041 Z"/>
                </g>
            </g>
            <g id="g8">
                <path id="path35" fill="#b09ecc" stroke="none" d="M 2910.608887 -1654.465332 L 2106.739014 -2458.321777 C 2095.77124 -2469.289063 2078.003418 -2469.289063 2067.035645 -2458.321777 L 1263.179565 -1654.465332 C 1252.211792 -1643.497314 1252.211792 -1625.72998 1263.179565 -1614.761963 L 2067.035645 -810.892334 C 2072.300293 -805.62793 2079.442871 -802.665771 2086.887451 -802.665771 C 2094.331787 -802.665771 2101.474609 -805.62793 2106.739014 -810.892334 L 2910.608887 -1614.761963 C 2915.873779 -1620.026123 2918.834961 -1627.169434 2918.834961 -1634.613525 C 2918.834961 -1642.057861 2915.873779 -1649.200928 2910.608887 -1654.465332 Z"/>
                <path id="path36" fill="#b09ecc" stroke="none" d="M 1819.890381 -1654.465332 L 1016.020508 -2458.321777 C 1005.052734 -2469.289063 987.284912 -2469.289063 976.317139 -2458.321777 L 172.44751 -1654.465332 C 167.182968 -1649.200928 164.221497 -1642.057861 164.221497 -1634.613525 C 164.221497 -1627.169434 167.182968 -1620.026123 172.44751 -1614.761963 L 976.317139 -810.892334 C 981.801147 -805.408203 988.984985 -802.665771 996.168823 -802.665771 C 1003.352905 -802.665771 1010.536743 -805.408203 1016.020508 -810.892334 L 1819.890381 -1614.761963 C 1825.154907 -1620.026123 1828.116455 -1627.169434 1828.116455 -1634.613525 C 1828.116455 -1642.057861 1825.154907 -1649.200928 1819.890381 -1654.465332 Z"/>
            </g>
            <path id="path37" fill="#3c3a4f" stroke="none" d="M 2594.583252 -1688.929199 L 1595.846924 -2687.666504 C 1565.864136 -2717.67627 1517.19397 -2717.67627 1487.211182 -2687.666504 L 488.473053 -1688.929199 C 458.462311 -1658.932617 458.462311 -1610.289063 488.473053 -1580.292236 L 1487.211182 -581.555176 C 1502.202637 -566.549805 1521.87146 -559.049072 1541.529907 -559.049072 C 1561.185059 -559.049072 1580.855591 -566.549805 1595.846924 -581.555176 L 2594.583252 -1580.292236 C 2624.594238 -1610.289063 2624.594238 -1658.932617 2594.583252 -1688.929199 Z"/>
            <path id="path38" fill="#ffffff" stroke="none" d="M 1797.407104 -1826.183105 C 1636.055054 -1826.183105 1504.776611 -1702.636719 1504.776611 -1550.775635 C 1504.776611 -1439.058594 1406.481934 -1348.173584 1285.649414 -1348.173584 C 1164.82959 -1348.173584 1066.535278 -1439.058594 1066.535278 -1550.775635 C 1066.535278 -1662.493408 1164.82959 -1753.384521 1285.649414 -1753.384521 C 1339.67041 -1753.384521 1391.557373 -1735.041992 1431.773682 -1701.741211 C 1447.317261 -1688.891113 1470.501221 -1690.926758 1483.502563 -1706.252686 C 1489.812256 -1713.701904 1492.815674 -1723.140137 1491.972656 -1732.828369 C 1491.116333 -1742.537109 1486.492676 -1751.32959 1478.944946 -1757.586182 C 1425.503296 -1801.820557 1356.860718 -1826.183105 1285.649414 -1826.183105 C 1124.297363 -1826.183105 993.018677 -1702.636719 993.018677 -1550.775635 C 993.018677 -1398.921387 1124.297363 -1275.38208 1285.649414 -1275.38208 C 1447.014404 -1275.38208 1578.293213 -1398.921387 1578.293213 -1550.775635 C 1578.293213 -1662.493408 1676.587524 -1753.384521 1797.407104 -1753.384521 C 1918.226685 -1753.384521 2016.520996 -1662.493408 2016.520996 -1550.775635 C 2016.520996 -1439.058594 1918.226685 -1348.173584 1797.407104 -1348.173584 C 1743.385864 -1348.173584 1691.498901 -1366.516602 1651.282837 -1399.817383 C 1635.791626 -1412.654297 1612.581421 -1410.638428 1599.553711 -1395.305908 C 1593.244019 -1387.856689 1590.227539 -1378.411377 1591.083618 -1368.723145 C 1591.953125 -1359.008301 1596.576782 -1350.222412 1604.124512 -1343.971924 C 1657.539673 -1299.744141 1726.182373 -1275.38208 1797.407104 -1275.38208 C 1958.758911 -1275.38208 2090.037598 -1398.921387 2090.037598 -1550.775635 C 2090.037598 -1702.636719 1958.758911 -1826.183105 1797.407104 -1826.183105 Z"/>
            <path id="path39" fill="#ffffff" stroke="none" d="M 1541.528076 -2187.566895 C 1475.320801 -2187.566895 1421.456177 -2134.350098 1421.456177 -2068.938965 C 1421.456177 -2003.527344 1475.320801 -1950.3125 1541.528076 -1950.3125 C 1607.737305 -1950.3125 1661.600342 -2003.527344 1661.600342 -2068.938965 C 1661.600342 -2134.350098 1607.737305 -2187.566895 1541.528076 -2187.566895 Z"/>
        </g>
    </g>
    <g id="Camada-2">
        <g id="g9">
            <g id="g10">
                <path id="path40" fill="#ffffff" stroke="none" d="M 5043.039063 -4934.333008 C 5103.085938 -4934.333008 5150.110352 -4981.366699 5150.110352 -5041.413574 L 5150.110352 -5348.332031 L 5491.979004 -5809.682617 C 5510.754395 -5835.98584 5520.332031 -5861.599609 5520.332031 -5885.697266 C 5520.332031 -5947.940918 5478.509277 -5989.763672 5416.273926 -5989.763672 C 5375.536621 -5989.763672 5342.464355 -5968.990234 5312.216797 -5924.394043 L 5044.52002 -5542.192871 L 4781.457031 -5921.302246 C 4749.60791 -5968.249023 4717.586426 -5988.248047 4674.316406 -5988.248047 C 4614.286621 -5988.248047 4567.261719 -5943.203613 4567.261719 -5885.697266 C 4567.261719 -5858.188965 4576.063965 -5832.816406 4594.150391 -5808.149902 L 4935.984375 -5343.78418 L 4935.984375 -5041.413574 C 4935.984375 -4981.366699 4983.008789 -4934.333008 5043.039063 -4934.333008 Z"/>
                <path id="path41" fill="#ffffff" stroke="none" d="M 6299.771484 -5997.282227 C 5989.941895 -5997.282227 5747.239258 -5761.848633 5747.239258 -5461.294434 L 5747.239258 -5458.280273 C 5747.239258 -5154.427734 5983.482422 -4925.29834 6296.774414 -4925.29834 C 6606.604004 -4925.29834 6849.307129 -5160.732422 6849.307129 -5461.294434 L 6849.307129 -5464.291992 C 6849.307129 -5768.144531 6613.062988 -5997.282227 6299.771484 -5997.282227 Z M 6624.655762 -5458.280273 C 6624.655762 -5266.219238 6484.994141 -5121.390137 6299.771484 -5121.390137 C 6115.927246 -5121.390137 5971.907227 -5270.698242 5971.907227 -5461.294434 L 5971.907227 -5464.291992 C 5971.907227 -5656.361328 6111.569336 -5801.208008 6296.774414 -5801.208008 C 6480.63623 -5801.208008 6624.655762 -5651.899902 6624.655762 -5461.294434 L 6624.655762 -5458.280273 Z"/>
                <path id="path42" fill="#ffffff" stroke="none" d="M 8075.017578 -5896.644043 C 7974.077637 -5967.146484 7868.021484 -5997.282227 7720.556641 -5997.282227 C 7415.774414 -5997.282227 7177.033691 -5761.848633 7177.033691 -5461.294434 L 7177.033691 -5458.280273 C 7177.033691 -5144.47168 7401.150391 -4925.29834 7722.037598 -4925.29834 C 7851.209473 -4925.29834 7973.715332 -4960.308594 8086.161133 -5029.355957 C 8139.490723 -5061.076172 8163.227539 -5104.225098 8163.227539 -5169.319336 L 8163.227539 -5425.182129 C 8163.227539 -5485.211914 8116.20166 -5532.236816 8056.155273 -5532.236816 L 7703.090332 -5532.236816 C 7652.344727 -5532.236816 7611.07373 -5490.964844 7611.07373 -5440.228516 C 7611.07373 -5389.474121 7651.484375 -5349.709961 7703.090332 -5349.709961 L 7956.628418 -5349.709961 L 7956.628418 -5185.855469 L 7952.959473 -5183.220215 C 7893.842773 -5140.793945 7816.587402 -5118.367188 7729.56543 -5118.367188 C 7539.589355 -5118.367188 7401.702148 -5262.584961 7401.702148 -5461.294434 L 7401.702148 -5464.291992 C 7401.702148 -5650.065918 7541.36377 -5801.208008 7713.028809 -5801.208008 C 7805.511719 -5801.208008 7875.910645 -5779.116699 7948.429199 -5727.329102 C 7964.465332 -5715.65918 7983.464844 -5704.893066 8014.022949 -5704.893066 C 8072.243164 -5704.893066 8119.595215 -5752.245605 8119.595215 -5810.458008 C 8119.595215 -5858.774414 8088.41748 -5886.825684 8075.017578 -5896.644043 Z"/>
                <path id="path43" fill="#ffffff" stroke="none" d="M 9128.750977 -5909.21875 C 9103.429688 -5965.837891 9059.884766 -5995.775391 9002.869141 -5995.775391 L 8989.330078 -5995.775391 C 8932.15918 -5995.775391 8886.90918 -5965.02832 8861.915039 -5909.192871 L 8494.691406 -5079.894531 C 8488.386719 -5066.02832 8481.945313 -5049.71582 8481.945313 -5033.88623 C 8481.945313 -4978.059082 8524.991211 -4934.333008 8579.956055 -4934.333008 C 8624.293945 -4934.333008 8660.294922 -4958.724121 8678.725586 -5001.25293 L 8754.740234 -5179.645508 L 9229.914063 -5179.645508 L 9302.949219 -5008.737305 C 9324.532227 -4959.387207 9359.292969 -4934.333008 9406.214844 -4934.333008 C 9462.867188 -4934.333008 9507.256836 -4979.376953 9507.256836 -5036.883301 C 9507.256836 -5049.509277 9503.793945 -5062.78125 9496.009766 -5079.894531 L 9128.750977 -5909.21875 Z M 8833.080078 -5366.685059 L 8992.34375 -5745.949707 L 9151.574219 -5366.685059 L 8833.080078 -5366.685059 Z"/>
                <g id="g11">
                    <path id="path44" fill="#ffffff" stroke="none" d="M 4935.42627 -4238.813477 L 4935.42627 -4522.02832 C 4935.42627 -4539.241211 4948.699219 -4552.522461 4965.912109 -4552.522461 L 5166.02832 -4552.522461 C 5180.779785 -4552.522461 5193.069336 -4540.23291 5193.069336 -4525.481934 C 5193.069336 -4510.234375 5180.779785 -4498.44043 5166.02832 -4498.44043 L 4995.900879 -4498.44043 L 4995.900879 -4408.940918 L 5108.624023 -4408.940918 C 5123.375488 -4408.940918 5135.665039 -4396.650879 5135.665039 -4381.421875 C 5135.665039 -4366.670898 5123.375488 -4354.858398 5108.624023 -4354.858398 L 4995.900879 -4354.858398 L 4995.900879 -4262.419434 L 5168.489746 -4262.419434 C 5183.241211 -4262.419434 5195.530762 -4250.129883 5195.530762 -4235.37793 C 5195.530762 -4220.130859 5183.241211 -4208.336914 5168.489746 -4208.336914 L 4965.912109 -4208.336914 C 4948.699219 -4208.336914 4935.42627 -4221.618652 4935.42627 -4238.813477 Z"/>
                    <path id="path45" fill="#ffffff" stroke="none" d="M 5314.074219 -4524.011719 C 5314.074219 -4540.729004 5327.34668 -4554.488281 5344.55957 -4554.488281 L 5350.952637 -4554.488281 C 5364.225098 -4554.488281 5373.07959 -4547.599121 5378.976563 -4538.26709 L 5483.209473 -4375.029297 L 5587.937988 -4538.744629 C 5594.331055 -4549.086914 5603.185547 -4554.488281 5615.475098 -4554.488281 L 5621.868164 -4554.488281 C 5639.081055 -4554.488281 5652.362793 -4540.729004 5652.362793 -4524.011719 L 5652.362793 -4235.874023 C 5652.362793 -4219.157715 5639.081055 -4205.875488 5621.868164 -4205.875488 C 5605.647461 -4205.875488 5591.869629 -4219.65332 5591.869629 -4235.874023 L 5591.869629 -4442.374023 L 5507.807129 -4316.023926 C 5501.414063 -4306.177246 5493.533203 -4300.280273 5482.23584 -4300.280273 C 5471.415527 -4300.280273 5463.552734 -4306.177246 5457.160645 -4316.023926 L 5373.575195 -4441.400879 L 5373.575195 -4235.37793 C 5373.575195 -4218.661133 5360.293457 -4205.875488 5343.577148 -4205.875488 C 5326.859863 -4205.875488 5314.074219 -4218.661133 5314.074219 -4235.37793 L 5314.074219 -4524.011719 Z"/>
                    <path id="path46" fill="#ffffff" stroke="none" d="M 5986.793457 -4524.011719 C 5986.793457 -4540.729004 6000.075195 -4554.488281 6017.27002 -4554.488281 L 6023.663086 -4554.488281 C 6036.944336 -4554.488281 6045.798828 -4547.599121 6051.695801 -4538.26709 L 6155.928711 -4375.029297 L 6260.657227 -4538.744629 C 6267.050293 -4549.086914 6275.904785 -4554.488281 6288.194336 -4554.488281 L 6294.587402 -4554.488281 C 6311.800293 -4554.488281 6325.082031 -4540.729004 6325.082031 -4524.011719 L 6325.082031 -4235.874023 C 6325.082031 -4219.157715 6311.800293 -4205.875488 6294.587402 -4205.875488 C 6278.366699 -4205.875488 6264.588867 -4219.65332 6264.588867 -4235.874023 L 6264.588867 -4442.374023 L 6180.526367 -4316.023926 C 6174.133301 -4306.177246 6166.25293 -4300.280273 6154.955078 -4300.280273 C 6144.135254 -4300.280273 6136.272461 -4306.177246 6129.879395 -4316.023926 L 6046.294922 -4441.400879 L 6046.294922 -4235.37793 C 6046.294922 -4218.661133 6033.013184 -4205.875488 6016.295898 -4205.875488 C 5999.57959 -4205.875488 5986.793457 -4218.661133 5986.793457 -4235.37793 L 5986.793457 -4524.011719 Z"/>
                    <path id="path47" fill="#ffffff" stroke="none" d="M 6447.574707 -4379.437988 L 6447.574707 -4380.429688 C 6447.574707 -4477.296387 6522.32373 -4558.419434 6628.026367 -4558.419434 C 6733.74707 -4558.419434 6807.503906 -4478.27002 6807.503906 -4381.421875 L 6807.503906 -4380.429688 C 6807.503906 -4283.563477 6732.754883 -4202.44043 6627.052246 -4202.44043 C 6521.332031 -4202.44043 6447.574707 -4282.589844 6447.574707 -4379.437988 Z M 6744.070801 -4379.437988 L 6744.070801 -4380.429688 C 6744.070801 -4447.297852 6695.389648 -4502.867676 6627.052246 -4502.867676 C 6558.696777 -4502.867676 6511.007813 -4448.289551 6511.007813 -4381.421875 L 6511.007813 -4380.429688 C 6511.007813 -4313.562012 6559.688965 -4258.487793 6628.026367 -4258.487793 C 6696.381836 -4258.487793 6744.070801 -4312.570313 6744.070801 -4379.437988 Z"/>
                    <path id="path48" fill="#ffffff" stroke="none" d="M 7015.033203 -4228.011719 L 6894.579102 -4511.226074 C 6892.612793 -4515.65332 6891.125488 -4520.0625 6891.125488 -4525.481934 C 6891.125488 -4541.702148 6904.406738 -4554.983887 6921.619629 -4554.983887 C 6937.344238 -4554.983887 6947.668457 -4546.129883 6952.591797 -4533.344238 L 7051.92041 -4285.033203 L 7152.718262 -4535.30957 C 7156.648926 -4545.633301 7167.469238 -4554.983887 7181.724121 -4554.983887 C 7198.441406 -4554.983887 7211.722656 -4542.198242 7211.722656 -4525.977539 C 7211.722656 -4521.550293 7210.234863 -4516.626953 7208.765625 -4513.191895 L 7087.81543 -4228.011719 C 7081.422852 -4212.764648 7070.106934 -4203.414063 7052.894043 -4203.414063 L 7049.458984 -4203.414063 C 7032.741211 -4203.414063 7021.425293 -4212.764648 7015.033203 -4228.011719 Z"/>
                    <path id="path49" fill="#ffffff" stroke="none" d="M 7328.282715 -4524.985352 C 7328.282715 -4541.702148 7341.563965 -4554.983887 7358.776855 -4554.983887 C 7375.494629 -4554.983887 7388.757324 -4541.702148 7388.757324 -4524.985352 L 7388.757324 -4235.874023 C 7388.757324 -4219.157715 7375.494629 -4205.875488 7358.776855 -4205.875488 C 7341.563965 -4205.875488 7328.282715 -4219.157715 7328.282715 -4235.874023 L 7328.282715 -4524.985352 Z"/>
                    <path id="path50" fill="#ffffff" stroke="none" d="M 7529.914551 -4524.011719 C 7529.914551 -4540.729004 7543.196777 -4554.488281 7560.391113 -4554.488281 L 7566.783691 -4554.488281 C 7580.064941 -4554.488281 7588.919922 -4547.599121 7594.817383 -4538.26709 L 7699.049805 -4375.029297 L 7803.77832 -4538.744629 C 7810.171387 -4549.086914 7819.025879 -4554.488281 7831.314941 -4554.488281 L 7837.708496 -4554.488281 C 7854.921387 -4554.488281 7868.202637 -4540.729004 7868.202637 -4524.011719 L 7868.202637 -4235.874023 C 7868.202637 -4219.157715 7854.921387 -4205.875488 7837.708496 -4205.875488 C 7821.487305 -4205.875488 7807.709961 -4219.65332 7807.709961 -4235.874023 L 7807.709961 -4442.374023 L 7723.646973 -4316.023926 C 7717.254883 -4306.177246 7709.374023 -4300.280273 7698.07666 -4300.280273 C 7687.255859 -4300.280273 7679.393555 -4306.177246 7673 -4316.023926 L 7589.415527 -4441.400879 L 7589.415527 -4235.37793 C 7589.415527 -4218.661133 7576.134277 -4205.875488 7559.416992 -4205.875488 C 7542.700195 -4205.875488 7529.914551 -4218.661133 7529.914551 -4235.37793 L 7529.914551 -4524.011719 Z"/>
                    <path id="path51" fill="#ffffff" stroke="none" d="M 8005.924316 -4238.813477 L 8005.924316 -4522.02832 C 8005.924316 -4539.241211 8019.207031 -4552.522461 8036.401367 -4552.522461 L 8236.526367 -4552.522461 C 8251.27832 -4552.522461 8263.568359 -4540.23291 8263.568359 -4525.481934 C 8263.568359 -4510.234375 8251.27832 -4498.44043 8236.526367 -4498.44043 L 8066.400391 -4498.44043 L 8066.400391 -4408.940918 L 8179.132324 -4408.940918 C 8193.865234 -4408.940918 8206.172852 -4396.650879 8206.172852 -4381.421875 C 8206.172852 -4366.670898 8193.865234 -4354.858398 8179.132324 -4354.858398 L 8066.400391 -4354.858398 L 8066.400391 -4262.419434 L 8238.988281 -4262.419434 C 8253.739258 -4262.419434 8266.030273 -4250.129883 8266.030273 -4235.37793 C 8266.030273 -4220.130859 8253.739258 -4208.336914 8238.988281 -4208.336914 L 8036.401367 -4208.336914 C 8019.207031 -4208.336914 8005.924316 -4221.618652 8005.924316 -4238.813477 Z"/>
                    <path id="path52" fill="#ffffff" stroke="none" d="M 8384.573242 -4524.011719 C 8384.573242 -4540.729004 8397.854492 -4554.488281 8415.048828 -4554.488281 L 8421.441406 -4554.488281 C 8436.194336 -4554.488281 8444.551758 -4547.121582 8452.910156 -4536.779297 L 8625.00293 -4314.058105 L 8625.00293 -4525.481934 C 8625.00293 -4541.702148 8638.28418 -4554.983887 8654.505859 -4554.983887 C 8671.222656 -4554.983887 8684.503906 -4541.702148 8684.503906 -4525.481934 L 8684.503906 -4236.370605 C 8684.503906 -4219.65332 8671.71875 -4206.371582 8655.001953 -4206.371582 L 8652.540039 -4206.371582 C 8638.28418 -4206.371582 8629.430664 -4213.738281 8621.071289 -4224.558105 L 8444.074219 -4453.69043 L 8444.074219 -4235.37793 C 8444.074219 -4219.157715 8430.791992 -4205.875488 8414.571289 -4205.875488 C 8397.854492 -4205.875488 8384.573242 -4219.157715 8384.573242 -4235.37793 L 8384.573242 -4524.011719 Z"/>
                    <path id="path53" fill="#ffffff" stroke="none" d="M 8906.821289 -4496.474609 L 8823.217773 -4496.474609 C 8807.493164 -4496.474609 8795.204102 -4509.260742 8795.204102 -4524.489258 C 8795.204102 -4539.736816 8807.493164 -4552.522461 8823.217773 -4552.522461 L 9051.854492 -4552.522461 C 9067.102539 -4552.522461 9079.391602 -4539.736816 9079.391602 -4524.489258 C 9079.391602 -4509.260742 9067.102539 -4496.474609 9051.854492 -4496.474609 L 8967.792969 -4496.474609 L 8967.792969 -4235.874023 C 8967.792969 -4219.157715 8954.015625 -4205.875488 8937.297852 -4205.875488 C 8920.581055 -4205.875488 8906.821289 -4219.157715 8906.821289 -4235.874023 L 8906.821289 -4496.474609 Z"/>
                    <path id="path54" fill="#ffffff" stroke="none" d="M 9156.142578 -4379.437988 L 9156.142578 -4380.429688 C 9156.142578 -4477.296387 9230.890625 -4558.419434 9336.59375 -4558.419434 C 9442.314453 -4558.419434 9516.071289 -4478.27002 9516.071289 -4381.421875 L 9516.071289 -4380.429688 C 9516.071289 -4283.563477 9441.323242 -4202.44043 9335.620117 -4202.44043 C 9229.899414 -4202.44043 9156.142578 -4282.589844 9156.142578 -4379.437988 Z M 9452.638672 -4379.437988 L 9452.638672 -4380.429688 C 9452.638672 -4447.297852 9403.957031 -4502.867676 9335.620117 -4502.867676 C 9267.264648 -4502.867676 9219.575195 -4448.289551 9219.575195 -4381.421875 L 9219.575195 -4380.429688 C 9219.575195 -4313.562012 9268.256836 -4258.487793 9336.59375 -4258.487793 C 9404.950195 -4258.487793 9452.638672 -4312.570313 9452.638672 -4379.437988 Z"/>
                </g>
            </g>
            <g id="g12">
                <g id="g13">
                    <path id="path55" fill="#ffffff" stroke="none" d="M 8404.654297 -7464.883789 L 7604.361816 -8265.163086 C 7593.442871 -8276.084961 7575.753906 -8276.084961 7564.834473 -8265.163086 L 6764.557129 -7464.883789 C 6753.638184 -7453.966797 6753.638184 -7436.279297 6764.557129 -7425.357422 L 7564.834473 -6625.068359 C 7570.07666 -6619.825195 7577.187012 -6616.87793 7584.598633 -6616.87793 C 7592.009766 -6616.87793 7599.120117 -6619.825195 7604.361816 -6625.068359 L 8404.654297 -7425.357422 C 8409.894531 -7430.601563 8412.842773 -7437.709961 8412.842773 -7445.121094 C 8412.842773 -7452.532227 8409.894531 -7459.644531 8404.654297 -7464.883789 Z"/>
                    <path id="path56" fill="#ffffff" stroke="none" d="M 7318.789551 -7464.883789 L 6518.497559 -8265.163086 C 6507.579102 -8276.084961 6489.890625 -8276.084961 6478.970703 -8265.163086 L 5678.678711 -7464.883789 C 5673.437988 -7459.644531 5670.490234 -7452.532227 5670.490234 -7445.121094 C 5670.490234 -7437.709961 5673.437988 -7430.601563 5678.678711 -7425.357422 L 6478.970703 -6625.068359 C 6484.430664 -6619.608398 6491.583496 -6616.87793 6498.734375 -6616.87793 C 6505.88623 -6616.87793 6513.038574 -6619.608398 6518.497559 -6625.068359 L 7318.789551 -7425.357422 C 7324.030762 -7430.601563 7326.979492 -7437.709961 7326.979492 -7445.121094 C 7326.979492 -7452.532227 7324.030762 -7459.644531 7318.789551 -7464.883789 Z"/>
                </g>
                <path id="path57" fill="#3c3a4f" stroke="none" d="M 8090.035156 -7499.196289 L 7095.743652 -8493.488281 C 7065.894531 -8523.364258 7017.440918 -8523.364258 6987.591797 -8493.488281 L 5993.29834 -7499.196289 C 5963.421387 -7469.333008 5963.421387 -7420.90625 5993.29834 -7391.042969 L 6987.591797 -6396.750977 C 7002.515625 -6381.8125 7022.097656 -6374.344727 7041.668945 -6374.344727 C 7061.23584 -6374.344727 7080.818848 -6381.8125 7095.743652 -6396.750977 L 8090.035156 -7391.042969 C 8119.911621 -7420.90625 8119.911621 -7469.333008 8090.035156 -7499.196289 Z"/>
                <path id="path58" fill="#ffffff" stroke="none" d="M 7296.407227 -7635.839844 C 7135.772949 -7635.839844 7005.078125 -7512.842773 7005.078125 -7361.658203 C 7005.078125 -7250.4375 6907.22168 -7159.957031 6786.92627 -7159.957031 C 6666.64502 -7159.957031 6568.787598 -7250.4375 6568.787598 -7361.658203 C 6568.787598 -7472.87793 6666.64502 -7563.364258 6786.92627 -7563.364258 C 6840.70752 -7563.364258 6892.36377 -7545.103516 6932.400391 -7511.951172 C 6947.875 -7499.158203 6970.955566 -7501.18457 6983.898926 -7516.442383 C 6990.181641 -7523.858398 6993.171387 -7533.254883 6992.332031 -7542.900391 C 6991.479492 -7552.56543 6986.876465 -7561.318359 6979.361816 -7567.547852 C 6926.157715 -7611.584961 6857.820801 -7635.839844 6786.92627 -7635.839844 C 6626.292969 -7635.839844 6495.598633 -7512.842773 6495.598633 -7361.658203 C 6495.598633 -7210.479492 6626.292969 -7087.489258 6786.92627 -7087.489258 C 6947.572754 -7087.489258 7078.267578 -7210.479492 7078.267578 -7361.658203 C 7078.267578 -7472.87793 7176.125 -7563.364258 7296.407227 -7563.364258 C 7416.688965 -7563.364258 7514.545898 -7472.87793 7514.545898 -7361.658203 C 7514.545898 -7250.4375 7416.688965 -7159.957031 7296.407227 -7159.957031 C 7242.625977 -7159.957031 7190.969727 -7178.21875 7150.933105 -7211.371094 C 7135.510254 -7224.150391 7112.40332 -7222.144531 7099.43457 -7206.879883 C 7093.151855 -7199.463867 7090.148926 -7190.060547 7091.001465 -7180.415039 C 7091.867188 -7170.744141 7096.470215 -7161.99707 7103.984863 -7155.774414 C 7157.161621 -7111.744141 7225.498535 -7087.489258 7296.407227 -7087.489258 C 7457.040527 -7087.489258 7587.734863 -7210.479492 7587.734863 -7361.658203 C 7587.734863 -7512.842773 7457.040527 -7635.839844 7296.407227 -7635.839844 Z"/>
                <path id="path59" fill="#ffffff" stroke="none" d="M 7041.666504 -7995.614258 C 6975.753906 -7995.614258 6922.129395 -7942.634766 6922.129395 -7877.514648 C 6922.129395 -7812.394531 6975.753906 -7759.416016 7041.666504 -7759.416016 C 7107.580566 -7759.416016 7161.204102 -7812.394531 7161.204102 -7877.514648 C 7161.204102 -7942.634766 7107.580566 -7995.614258 7041.666504 -7995.614258 Z"/>
            </g>
        </g>
    </g>
    <g id="Camada-1">
        <g id="g14">
            <g id="g15">
                <path id="path60" fill="#b09ecc" stroke="none" d="M -1169.46106 -4934.333008 C -1109.414063 -4934.333008 -1062.389282 -4981.366699 -1062.389282 -5041.413574 L -1062.389282 -5348.332031 L -720.520996 -5809.682617 C -701.745483 -5835.98584 -692.168335 -5861.599609 -692.168335 -5885.697266 C -692.168335 -5947.940918 -733.991089 -5989.763672 -796.225708 -5989.763672 C -836.963257 -5989.763672 -870.035645 -5968.990234 -900.283081 -5924.394043 L -1167.979736 -5542.192871 L -1431.042847 -5921.302246 C -1462.892212 -5968.249023 -1494.913818 -5988.248047 -1538.183594 -5988.248047 C -1598.213379 -5988.248047 -1645.238037 -5943.203613 -1645.238037 -5885.697266 C -1645.238037 -5858.188965 -1636.436035 -5832.816406 -1618.349609 -5808.149902 L -1276.515625 -5343.78418 L -1276.515625 -5041.413574 C -1276.515625 -4981.366699 -1229.490845 -4934.333008 -1169.46106 -4934.333008 Z"/>
                <path id="path61" fill="#b09ecc" stroke="none" d="M 87.271553 -5997.282227 C -222.557907 -5997.282227 -465.260895 -5761.848633 -465.260895 -5461.294434 L -465.260895 -5458.280273 C -465.260895 -5154.427734 -229.017334 -4925.29834 84.274345 -4925.29834 C 394.103943 -4925.29834 636.806824 -5160.732422 636.806824 -5461.294434 L 636.806824 -5464.291992 C 636.806824 -5768.144531 400.563354 -5997.282227 87.271553 -5997.282227 Z M 412.155853 -5458.280273 C 412.155853 -5266.219238 272.494049 -5121.390137 87.271553 -5121.390137 C -96.572952 -5121.390137 -240.592773 -5270.698242 -240.592773 -5461.294434 L -240.592773 -5464.291992 C -240.592773 -5656.361328 -100.930862 -5801.208008 84.274345 -5801.208008 C 268.136017 -5801.208008 412.155853 -5651.899902 412.155853 -5461.294434 L 412.155853 -5458.280273 Z"/>
                <path id="path62" fill="#b09ecc" stroke="none" d="M 1862.516846 -5896.644043 C 1761.577393 -5967.146484 1655.521729 -5997.282227 1508.057007 -5997.282227 C 1203.274292 -5997.282227 964.533264 -5761.848633 964.533264 -5461.294434 L 964.533264 -5458.280273 C 964.533264 -5144.47168 1188.650269 -4925.29834 1509.53833 -4925.29834 C 1638.710083 -4925.29834 1761.215576 -4960.308594 1873.661621 -5029.355957 C 1926.990845 -5061.076172 1950.727173 -5104.225098 1950.727173 -5169.319336 L 1950.727173 -5425.182129 C 1950.727173 -5485.211914 1903.702393 -5532.236816 1843.655151 -5532.236816 L 1490.590454 -5532.236816 C 1439.845093 -5532.236816 1398.573608 -5490.964844 1398.573608 -5440.228516 C 1398.573608 -5389.474121 1438.984009 -5349.709961 1490.590454 -5349.709961 L 1744.128174 -5349.709961 L 1744.128174 -5185.855469 L 1740.459229 -5183.220215 C 1681.342407 -5140.793945 1604.087402 -5118.367188 1517.065796 -5118.367188 C 1327.088989 -5118.367188 1189.201416 -5262.584961 1189.201416 -5461.294434 L 1189.201416 -5464.291992 C 1189.201416 -5650.065918 1328.863281 -5801.208008 1500.529541 -5801.208008 C 1593.011475 -5801.208008 1663.411011 -5779.116699 1735.928955 -5727.329102 C 1751.965698 -5715.65918 1770.965088 -5704.893066 1801.522339 -5704.893066 C 1859.74353 -5704.893066 1907.095703 -5752.245605 1907.095703 -5810.458008 C 1907.095703 -5858.774414 1875.918091 -5886.825684 1862.516846 -5896.644043 Z"/>
                <path id="path63" fill="#b09ecc" stroke="none" d="M 2916.250732 -5909.21875 C 2890.929688 -5965.837891 2847.384277 -5995.775391 2790.369141 -5995.775391 L 2776.830078 -5995.775391 C 2719.659424 -5995.775391 2674.408936 -5965.02832 2649.415039 -5909.192871 L 2282.191406 -5079.894531 C 2275.887207 -5066.02832 2269.444824 -5049.71582 2269.444824 -5033.88623 C 2269.444824 -4978.059082 2312.490723 -4934.333008 2367.456055 -4934.333008 C 2411.793945 -4934.333008 2447.794434 -4958.724121 2466.225586 -5001.25293 L 2542.240234 -5179.645508 L 3017.414307 -5179.645508 L 3090.448975 -5008.737305 C 3112.032227 -4959.387207 3146.792725 -4934.333008 3193.713867 -4934.333008 C 3250.367676 -4934.333008 3294.75708 -4979.376953 3294.75708 -5036.883301 C 3294.75708 -5049.509277 3291.294922 -5062.78125 3283.508789 -5079.894531 L 2916.250732 -5909.21875 Z M 2620.580078 -5366.685059 L 2779.844238 -5745.949707 L 2939.074219 -5366.685059 L 2620.580078 -5366.685059 Z"/>
                <g id="g16">
                    <path id="path64" fill="#b09ecc" stroke="none" d="M -1277.07373 -4238.813477 L -1277.07373 -4522.02832 C -1277.07373 -4539.241211 -1263.80127 -4552.522461 -1246.588257 -4552.522461 L -1046.471802 -4552.522461 C -1031.720459 -4552.522461 -1019.430725 -4540.23291 -1019.430725 -4525.481934 C -1019.430725 -4510.234375 -1031.720459 -4498.44043 -1046.471802 -4498.44043 L -1216.598877 -4498.44043 L -1216.598877 -4408.940918 L -1103.875977 -4408.940918 C -1089.124634 -4408.940918 -1076.834961 -4396.650879 -1076.834961 -4381.421875 C -1076.834961 -4366.670898 -1089.124634 -4354.858398 -1103.875977 -4354.858398 L -1216.598877 -4354.858398 L -1216.598877 -4262.419434 L -1044.010132 -4262.419434 C -1029.258911 -4262.419434 -1016.969116 -4250.129883 -1016.969116 -4235.37793 C -1016.969116 -4220.130859 -1029.258911 -4208.336914 -1044.010132 -4208.336914 L -1246.588257 -4208.336914 C -1263.80127 -4208.336914 -1277.07373 -4221.618652 -1277.07373 -4238.813477 Z"/>
                    <path id="path65" fill="#b09ecc" stroke="none" d="M -898.42572 -4524.011719 C -898.42572 -4540.729004 -885.153259 -4554.488281 -867.940369 -4554.488281 L -861.547485 -4554.488281 C -848.274963 -4554.488281 -839.420471 -4547.599121 -833.523621 -4538.26709 L -729.29071 -4375.029297 L -624.561768 -4538.744629 C -618.168945 -4549.086914 -609.314392 -4554.488281 -597.024719 -4554.488281 L -590.631958 -4554.488281 C -573.419006 -4554.488281 -560.137268 -4540.729004 -560.137268 -4524.011719 L -560.137268 -4235.874023 C -560.137268 -4219.157715 -573.419006 -4205.875488 -590.631958 -4205.875488 C -606.852783 -4205.875488 -620.630615 -4219.65332 -620.630615 -4235.874023 L -620.630615 -4442.374023 L -704.692932 -4316.023926 C -711.085754 -4306.177246 -718.966614 -4300.280273 -730.264282 -4300.280273 C -741.084412 -4300.280273 -748.946899 -4306.177246 -755.339783 -4316.023926 L -838.9245 -4441.400879 L -838.9245 -4235.37793 C -838.9245 -4218.661133 -852.206177 -4205.875488 -868.923157 -4205.875488 C -885.640076 -4205.875488 -898.42572 -4218.661133 -898.42572 -4235.37793 L -898.42572 -4524.011719 Z"/>
                    <path id="path66" fill="#b09ecc" stroke="none" d="M -225.706436 -4524.011719 C -225.706436 -4540.729004 -212.424805 -4554.488281 -195.230179 -4554.488281 L -188.837387 -4554.488281 C -175.555618 -4554.488281 -166.701202 -4547.599121 -160.804321 -4538.26709 L -56.5714 -4375.029297 L 48.157555 -4538.744629 C 54.55035 -4549.086914 63.40477 -4554.488281 75.69458 -4554.488281 L 82.087379 -4554.488281 C 99.300308 -4554.488281 112.582069 -4540.729004 112.582069 -4524.011719 L 112.582069 -4235.874023 C 112.582069 -4219.157715 99.300308 -4205.875488 82.087379 -4205.875488 C 65.866394 -4205.875488 52.088726 -4219.65332 52.088726 -4235.874023 L 52.088726 -4442.374023 L -31.973597 -4316.023926 C -38.36652 -4306.177246 -46.247303 -4300.280273 -57.545036 -4300.280273 C -68.365173 -4300.280273 -76.227646 -4306.177246 -82.620438 -4316.023926 L -166.20517 -4441.400879 L -166.20517 -4235.37793 C -166.20517 -4218.661133 -179.486923 -4205.875488 -196.203812 -4205.875488 C -212.920837 -4205.875488 -225.706436 -4218.661133 -225.706436 -4235.37793 L -225.706436 -4524.011719 Z"/>
                    <path id="path67" fill="#b09ecc" stroke="none" d="M 235.075043 -4379.437988 L 235.075043 -4380.429688 C 235.075043 -4477.296387 309.823669 -4558.419434 415.526123 -4558.419434 C 521.247131 -4558.419434 595.003845 -4478.27002 595.003845 -4381.421875 L 595.003845 -4380.429688 C 595.003845 -4283.563477 520.255066 -4202.44043 414.55249 -4202.44043 C 308.831573 -4202.44043 235.075043 -4282.589844 235.075043 -4379.437988 Z M 531.571228 -4379.437988 L 531.571228 -4380.429688 C 531.571228 -4447.297852 482.889862 -4502.867676 414.55249 -4502.867676 C 346.196808 -4502.867676 298.507477 -4448.289551 298.507477 -4381.421875 L 298.507477 -4380.429688 C 298.507477 -4313.562012 347.188751 -4258.487793 415.526123 -4258.487793 C 483.881927 -4258.487793 531.571228 -4312.570313 531.571228 -4379.437988 Z"/>
                    <path id="path68" fill="#b09ecc" stroke="none" d="M 802.532776 -4228.011719 L 682.078857 -4511.226074 C 680.113281 -4515.65332 678.625305 -4520.0625 678.625305 -4525.481934 C 678.625305 -4541.702148 691.906799 -4554.983887 709.119751 -4554.983887 C 724.844666 -4554.983887 735.168762 -4546.129883 740.092041 -4533.344238 L 839.420105 -4285.033203 L 940.217896 -4535.30957 C 944.149048 -4545.633301 954.969055 -4554.983887 969.224365 -4554.983887 C 985.941345 -4554.983887 999.223145 -4542.198242 999.223145 -4525.977539 C 999.223145 -4521.550293 997.735168 -4516.626953 996.265442 -4513.191895 L 875.315674 -4228.011719 C 868.922729 -4212.764648 857.606812 -4203.414063 840.39386 -4203.414063 L 836.958618 -4203.414063 C 820.241577 -4203.414063 808.925415 -4212.764648 802.532776 -4228.011719 Z"/>
                    <path id="path69" fill="#b09ecc" stroke="none" d="M 1115.782471 -4524.985352 C 1115.782471 -4541.702148 1129.064209 -4554.983887 1146.277222 -4554.983887 C 1162.994141 -4554.983887 1176.257324 -4541.702148 1176.257324 -4524.985352 L 1176.257324 -4235.874023 C 1176.257324 -4219.157715 1162.994141 -4205.875488 1146.277222 -4205.875488 C 1129.064209 -4205.875488 1115.782471 -4219.157715 1115.782471 -4235.874023 L 1115.782471 -4524.985352 Z"/>
                    <path id="path70" fill="#b09ecc" stroke="none" d="M 1317.414673 -4524.011719 C 1317.414673 -4540.729004 1330.696167 -4554.488281 1347.890747 -4554.488281 L 1354.283691 -4554.488281 C 1367.56543 -4554.488281 1376.419922 -4547.599121 1382.31665 -4538.26709 L 1486.549683 -4375.029297 L 1591.278687 -4538.744629 C 1597.671265 -4549.086914 1606.526001 -4554.488281 1618.815674 -4554.488281 L 1625.208374 -4554.488281 C 1642.421265 -4554.488281 1655.703003 -4540.729004 1655.703003 -4524.011719 L 1655.703003 -4235.874023 C 1655.703003 -4219.157715 1642.421265 -4205.875488 1625.208374 -4205.875488 C 1608.987427 -4205.875488 1595.209839 -4219.65332 1595.209839 -4235.874023 L 1595.209839 -4442.374023 L 1511.147339 -4316.023926 C 1504.754639 -4306.177246 1496.873779 -4300.280273 1485.575928 -4300.280273 C 1474.755859 -4300.280273 1466.893555 -4306.177246 1460.50061 -4316.023926 L 1376.915771 -4441.400879 L 1376.915771 -4235.37793 C 1376.915771 -4218.661133 1363.634277 -4205.875488 1346.917236 -4205.875488 C 1330.200195 -4205.875488 1317.414673 -4218.661133 1317.414673 -4235.37793 L 1317.414673 -4524.011719 Z"/>
                    <path id="path71" fill="#b09ecc" stroke="none" d="M 1793.425049 -4238.813477 L 1793.425049 -4522.02832 C 1793.425049 -4539.241211 1806.706787 -4552.522461 1823.901123 -4552.522461 L 2024.0271 -4552.522461 C 2038.778198 -4552.522461 2051.068115 -4540.23291 2051.068115 -4525.481934 C 2051.068115 -4510.234375 2038.778198 -4498.44043 2024.0271 -4498.44043 L 1853.899902 -4498.44043 L 1853.899902 -4408.940918 L 1966.63208 -4408.940918 C 1981.36499 -4408.940918 1993.672974 -4396.650879 1993.672974 -4381.421875 C 1993.672974 -4366.670898 1981.36499 -4354.858398 1966.63208 -4354.858398 L 1853.899902 -4354.858398 L 1853.899902 -4262.419434 L 2026.488525 -4262.419434 C 2041.23999 -4262.419434 2053.529785 -4250.129883 2053.529785 -4235.37793 C 2053.529785 -4220.130859 2041.23999 -4208.336914 2026.488525 -4208.336914 L 1823.901123 -4208.336914 C 1806.706787 -4208.336914 1793.425049 -4221.618652 1793.425049 -4238.813477 Z"/>
                    <path id="path72" fill="#b09ecc" stroke="none" d="M 2172.072998 -4524.011719 C 2172.072998 -4540.729004 2185.354736 -4554.488281 2202.549316 -4554.488281 L 2208.942139 -4554.488281 C 2223.693359 -4554.488281 2232.052002 -4547.121582 2240.4104 -4536.779297 L 2412.503174 -4314.058105 L 2412.503174 -4525.481934 C 2412.503174 -4541.702148 2425.784912 -4554.983887 2442.005615 -4554.983887 C 2458.722656 -4554.983887 2472.004395 -4541.702148 2472.004395 -4525.481934 L 2472.004395 -4236.370605 C 2472.004395 -4219.65332 2459.21875 -4206.371582 2442.501953 -4206.371582 L 2440.040039 -4206.371582 C 2425.784912 -4206.371582 2416.93042 -4213.738281 2408.572021 -4224.558105 L 2231.574219 -4453.69043 L 2231.574219 -4235.37793 C 2231.574219 -4219.157715 2218.29248 -4205.875488 2202.071777 -4205.875488 C 2185.354736 -4205.875488 2172.072998 -4219.157715 2172.072998 -4235.37793 L 2172.072998 -4524.011719 Z"/>
                    <path id="path73" fill="#b09ecc" stroke="none" d="M 2694.321289 -4496.474609 L 2610.718262 -4496.474609 C 2594.993164 -4496.474609 2582.703613 -4509.260742 2582.703613 -4524.489258 C 2582.703613 -4539.736816 2594.993164 -4552.522461 2610.718262 -4552.522461 L 2839.354492 -4552.522461 C 2854.602051 -4552.522461 2866.891602 -4539.736816 2866.891602 -4524.489258 C 2866.891602 -4509.260742 2854.602051 -4496.474609 2839.354492 -4496.474609 L 2755.292236 -4496.474609 L 2755.292236 -4235.874023 C 2755.292236 -4219.157715 2741.514648 -4205.875488 2724.797607 -4205.875488 C 2708.080566 -4205.875488 2694.321289 -4219.157715 2694.321289 -4235.874023 L 2694.321289 -4496.474609 Z"/>
                    <path id="path74" fill="#b09ecc" stroke="none" d="M 2943.642822 -4379.437988 L 2943.642822 -4380.429688 C 2943.642822 -4477.296387 3018.391357 -4558.419434 3124.09375 -4558.419434 C 3229.814697 -4558.419434 3303.571533 -4478.27002 3303.571533 -4381.421875 L 3303.571533 -4380.429688 C 3303.571533 -4283.563477 3228.822998 -4202.44043 3123.120117 -4202.44043 C 3017.39917 -4202.44043 2943.642822 -4282.589844 2943.642822 -4379.437988 Z M 3240.138916 -4379.437988 L 3240.138916 -4380.429688 C 3240.138916 -4447.297852 3191.457764 -4502.867676 3123.120117 -4502.867676 C 3054.764404 -4502.867676 3007.074951 -4448.289551 3007.074951 -4381.421875 L 3007.074951 -4380.429688 C 3007.074951 -4313.562012 3055.756592 -4258.487793 3124.09375 -4258.487793 C 3192.449463 -4258.487793 3240.138916 -4312.570313 3240.138916 -4379.437988 Z"/>
                </g>
            </g>
            <g id="g17">
                <g id="g18">
                    <path id="path75" fill="#b09ecc" stroke="none" d="M 2192.153809 -7464.883789 L 1391.861816 -8265.163086 C 1380.943115 -8276.084961 1363.254395 -8276.084961 1352.334961 -8265.163086 L 552.056946 -7464.883789 C 541.138245 -7453.966797 541.138245 -7436.279297 552.056946 -7425.357422 L 1352.334961 -6625.069336 C 1357.57605 -6619.825195 1364.687378 -6616.87793 1372.098633 -6616.87793 C 1379.509766 -6616.87793 1386.620605 -6619.825195 1391.861816 -6625.069336 L 2192.153809 -7425.357422 C 2197.394775 -7430.602539 2200.343018 -7437.709961 2200.343018 -7445.121094 C 2200.343018 -7452.532227 2197.394775 -7459.644531 2192.153809 -7464.883789 Z"/>
                    <path id="path76" fill="#b09ecc" stroke="none" d="M 1106.289673 -7464.883789 L 305.997772 -8265.163086 C 295.079102 -8276.084961 277.39035 -8276.084961 266.471161 -8265.163086 L -533.820801 -7464.883789 C -539.061951 -7459.644531 -542.009705 -7452.532227 -542.009705 -7445.121094 C -542.009705 -7437.709961 -539.061951 -7430.602539 -533.820801 -7425.357422 L 266.471161 -6625.069336 C 271.930756 -6619.608398 279.083038 -6616.87793 286.234833 -6616.87793 C 293.386383 -6616.87793 300.538696 -6619.608398 305.997772 -6625.069336 L 1106.289673 -7425.357422 C 1111.530884 -7430.602539 1114.47937 -7437.709961 1114.47937 -7445.121094 C 1114.47937 -7452.532227 1111.530884 -7459.644531 1106.289673 -7464.883789 Z"/>
                </g>
                <path id="path77" fill="#3c3a4f" stroke="none" d="M 1877.53479 -7499.196289 L 883.243591 -8493.488281 C 853.394348 -8523.364258 804.940857 -8523.364258 775.09137 -8493.488281 L -219.201614 -7499.196289 C -249.078705 -7469.333008 -249.078705 -7420.90625 -219.201614 -7391.042969 L 775.09137 -6396.750977 C 790.015991 -6381.8125 809.597351 -6374.344727 829.168518 -6374.344727 C 848.73584 -6374.344727 868.31897 -6381.8125 883.243591 -6396.750977 L 1877.53479 -7391.042969 C 1907.411987 -7420.90625 1907.411987 -7469.333008 1877.53479 -7499.196289 Z"/>
                <path id="path78" fill="#ffffff" stroke="none" d="M 1083.906616 -7635.839844 C 923.27301 -7635.839844 792.57843 -7512.842773 792.57843 -7361.658203 C 792.57843 -7250.4375 694.721802 -7159.957031 574.426575 -7159.957031 C 454.144836 -7159.957031 356.287933 -7250.4375 356.287933 -7361.658203 C 356.287933 -7472.87793 454.144836 -7563.364258 574.426575 -7563.364258 C 628.207214 -7563.364258 679.863525 -7545.103516 719.900574 -7511.951172 C 735.375244 -7499.158203 758.455688 -7501.18457 771.399475 -7516.442383 C 777.68103 -7523.858398 780.670959 -7533.254883 779.831726 -7542.900391 C 778.979309 -7552.56543 774.376221 -7561.318359 766.862061 -7567.547852 C 713.658203 -7611.584961 645.321228 -7635.839844 574.426575 -7635.839844 C 413.792969 -7635.839844 283.098663 -7512.842773 283.098663 -7361.658203 C 283.098663 -7210.479492 413.792969 -7087.489258 574.426575 -7087.489258 C 735.073425 -7087.489258 865.768005 -7210.479492 865.768005 -7361.658203 C 865.768005 -7472.87793 963.624878 -7563.364258 1083.906616 -7563.364258 C 1204.188599 -7563.364258 1302.045532 -7472.87793 1302.045532 -7361.658203 C 1302.045532 -7250.4375 1204.188599 -7159.957031 1083.906616 -7159.957031 C 1030.125977 -7159.957031 978.46991 -7178.21875 938.432617 -7211.371094 C 923.010559 -7224.150391 899.903687 -7222.144531 886.93396 -7206.879883 C 880.652405 -7199.463867 877.649231 -7190.060547 878.501709 -7180.415039 C 879.367126 -7170.744141 883.970215 -7161.99707 891.484619 -7155.774414 C 944.662048 -7111.744141 1012.999023 -7087.489258 1083.906616 -7087.489258 C 1244.540405 -7087.489258 1375.234741 -7210.479492 1375.234741 -7361.658203 C 1375.234741 -7512.842773 1244.540405 -7635.839844 1083.906616 -7635.839844 Z"/>
                <path id="path79" fill="#ffffff" stroke="none" d="M 829.166748 -7995.614258 C 763.253845 -7995.614258 709.629089 -7942.634766 709.629089 -7877.514648 C 709.629089 -7812.394531 763.253845 -7759.416016 829.166748 -7759.416016 C 895.081116 -7759.416016 948.704346 -7812.394531 948.704346 -7877.514648 C 948.704346 -7942.634766 895.081116 -7995.614258 829.166748 -7995.614258 Z"/>
            </g>
        </g>
    </g>
</svg>
