<?xml version="1.0" encoding="UTF-8"?>
<!-- Generated by Pixelmator Pro 3.5.7 -->
<svg width="5577" height="4356" viewBox="0 0 5577 4356" xmlns="http://www.w3.org/2000/svg">
    <g id="Camada-4">
        <g id="Agrupar">
            <g id="g1">
                <path id="Traado" fill="#ffffff" stroke="none" d="M 12220.75293 7238.746094 L 10641.046875 5659.066406 C 10619.494141 5637.507813 10584.578125 5637.507813 10563.024414 5659.066406 L 8983.347656 7238.746094 C 8961.794922 7260.29541 8961.794922 7295.208984 8983.347656 7316.767578 L 10563.024414 8896.466797 C 10573.370117 8906.818359 10587.407227 8912.636719 10602.036133 8912.636719 C 10616.665039 8912.636719 10630.701172 8906.818359 10641.046875 8896.466797 L 12220.75293 7316.767578 C 12231.098633 7306.416016 12236.917969 7292.385742 12236.917969 7277.757813 C 12236.917969 7263.128418 12231.098633 7249.088867 12220.75293 7238.746094 Z"/>
                <path id="path1" fill="#ffffff" stroke="none" d="M 10077.353516 7238.746094 L 8497.648438 5659.066406 C 8476.095703 5637.507813 8441.179688 5637.507813 8419.625977 5659.066406 L 6839.921387 7238.746094 C 6829.575684 7249.088867 6823.757324 7263.128418 6823.757324 7277.757813 C 6823.757324 7292.385742 6829.575684 7306.416016 6839.921387 7316.767578 L 8419.625977 8896.466797 C 8430.40332 8907.246094 8444.520508 8912.636719 8458.638672 8912.636719 C 8472.754883 8912.636719 8486.873047 8907.246094 8497.648438 8896.466797 L 10077.353516 7316.767578 C 10087.699219 7306.416016 10093.518555 7292.385742 10093.518555 7277.757813 C 10093.518555 7263.128418 10087.699219 7249.088867 10077.353516 7238.746094 Z"/>
            </g>
            <path id="path2" fill="#e2e2e2" stroke="none" d="M 11599.723633 7171.017578 L 9637.081055 5208.373047 C 9578.160156 5149.400391 9482.517578 5149.400391 9423.59668 5208.373047 L 7460.95166 7171.017578 C 7401.977051 7229.964844 7401.977051 7325.554688 7460.95166 7384.502441 L 9423.59668 9347.146484 C 9453.057617 9376.632813 9491.708984 9391.373047 9530.34082 9391.373047 C 9568.96582 9391.373047 9607.620117 9376.632813 9637.081055 9347.146484 L 11599.723633 7384.502441 C 11658.697266 7325.554688 11658.697266 7229.964844 11599.723633 7171.017578 Z"/>
            <path id="path3" fill="#ffffff" stroke="none" d="M 10033.171875 6901.295898 C 9716.094727 6901.295898 9458.115234 7144.080078 9458.115234 7442.505859 C 9458.115234 7662.044922 9264.954102 7840.644531 9027.50293 7840.644531 C 8790.077148 7840.644531 8596.916992 7662.044922 8596.916992 7442.505859 C 8596.916992 7222.967285 8790.077148 7044.354492 9027.50293 7044.354492 C 9133.661133 7044.354492 9235.625977 7080.400879 9314.655273 7145.84082 C 9345.201172 7171.091797 9390.759766 7167.092773 9416.30957 7136.974609 C 9428.708984 7122.335938 9434.611328 7103.788574 9432.955078 7084.75 C 9431.272461 7065.671875 9422.186523 7048.393066 9407.353516 7036.09668 C 9302.333008 6949.172363 9167.442383 6901.295898 9027.50293 6901.295898 C 8710.426758 6901.295898 8452.447266 7144.080078 8452.447266 7442.505859 C 8452.447266 7740.918945 8710.426758 7983.69043 9027.50293 7983.69043 C 9344.605469 7983.69043 9602.584961 7740.918945 9602.584961 7442.505859 C 9602.584961 7222.967285 9795.746094 7044.354492 10033.171875 7044.354492 C 10270.597656 7044.354492 10463.757813 7222.967285 10463.757813 7442.505859 C 10463.757813 7662.044922 10270.597656 7840.644531 10033.171875 7840.644531 C 9927.012695 7840.644531 9825.048828 7804.598633 9746.018555 7739.15918 C 9715.577148 7713.932617 9669.96582 7717.893555 9644.364258 7748.024414 C 9631.96582 7762.663086 9626.037109 7781.223633 9627.719727 7800.262207 C 9629.427734 7819.353027 9638.513672 7836.619141 9653.347656 7848.902344 C 9758.314453 7935.814453 9893.206055 7983.69043 10033.171875 7983.69043 C 10350.248047 7983.69043 10608.227539 7740.918945 10608.227539 7442.505859 C 10608.227539 7144.080078 10350.248047 6901.295898 10033.171875 6901.295898 Z"/>
            <path id="path4" fill="#ffffff" stroke="none" d="M 9530.336914 6191.132813 C 9400.230469 6191.132813 9294.380859 6295.709473 9294.380859 6424.250488 C 9294.380859 6552.791992 9400.230469 6657.366699 9530.336914 6657.366699 C 9660.446289 6657.366699 9766.293945 6552.791992 9766.293945 6424.250488 C 9766.293945 6295.709473 9660.446289 6191.132813 9530.336914 6191.132813 Z"/>
        </g>
    </g>
    <g id="Camada-3">
        <g id="g2">
            <g id="g3">
                <path id="path5" fill="#000000" stroke="none" d="M 12220.75293 2138.746582 L 10641.046875 559.06665 C 10619.494141 537.508057 10584.578125 537.508057 10563.024414 559.06665 L 8983.347656 2138.746582 C 8961.794922 2160.295654 8961.794922 2195.208984 8983.347656 2216.767578 L 10563.024414 3796.466553 C 10573.370117 3806.818115 10587.407227 3812.635742 10602.036133 3812.635742 C 10616.665039 3812.635742 10630.701172 3806.818115 10641.046875 3796.466553 L 12220.75293 2216.767578 C 12231.098633 2206.416016 12236.917969 2192.385986 12236.917969 2177.757324 C 12236.917969 2163.128174 12231.098633 2149.088623 12220.75293 2138.746582 Z"/>
                <path id="path6" fill="#000000" stroke="none" d="M 10077.353516 2138.746582 L 8497.648438 559.06665 C 8476.095703 537.508057 8441.179688 537.508057 8419.625977 559.06665 L 6839.921387 2138.746582 C 6829.575684 2149.088623 6823.757324 2163.128174 6823.757324 2177.757324 C 6823.757324 2192.385986 6829.575684 2206.416016 6839.921387 2216.767578 L 8419.625977 3796.466553 C 8430.40332 3807.246094 8444.520508 3812.635742 8458.638672 3812.635742 C 8472.754883 3812.635742 8486.873047 3807.246094 8497.648438 3796.466553 L 10077.353516 2216.767578 C 10087.699219 2206.416016 10093.518555 2192.385986 10093.518555 2177.757324 C 10093.518555 2163.128174 10087.699219 2149.088623 10077.353516 2138.746582 Z"/>
            </g>
            <path id="path7" fill="#595959" stroke="none" d="M 11599.723633 2071.017578 L 9637.081055 108.373535 C 9578.160156 49.400391 9482.517578 49.400391 9423.59668 108.373535 L 7460.95166 2071.017578 C 7401.977051 2129.965088 7401.977051 2225.554688 7460.95166 2284.502197 L 9423.59668 4247.146484 C 9453.057617 4276.633301 9491.708984 4291.374023 9530.34082 4291.374023 C 9568.96582 4291.374023 9607.620117 4276.633301 9637.081055 4247.146484 L 11599.723633 2284.502197 C 11658.697266 2225.554688 11658.697266 2129.965088 11599.723633 2071.017578 Z"/>
            <path id="path8" fill="#ffffff" stroke="none" d="M 10033.171875 1801.295898 C 9716.094727 1801.295898 9458.115234 2044.079834 9458.115234 2342.505859 C 9458.115234 2562.044434 9264.954102 2740.644531 9027.50293 2740.644531 C 8790.077148 2740.644531 8596.916992 2562.044434 8596.916992 2342.505859 C 8596.916992 2122.967529 8790.077148 1944.354248 9027.50293 1944.354248 C 9133.661133 1944.354248 9235.625977 1980.400879 9314.655273 2045.840576 C 9345.201172 2071.092285 9390.759766 2067.092773 9416.30957 2036.974365 C 9428.708984 2022.335938 9434.611328 2003.788574 9432.955078 1984.749756 C 9431.272461 1965.671387 9422.186523 1948.392822 9407.353516 1936.096924 C 9302.333008 1849.172363 9167.442383 1801.295898 9027.50293 1801.295898 C 8710.426758 1801.295898 8452.447266 2044.079834 8452.447266 2342.505859 C 8452.447266 2640.918945 8710.426758 2883.689941 9027.50293 2883.689941 C 9344.605469 2883.689941 9602.584961 2640.918945 9602.584961 2342.505859 C 9602.584961 2122.967529 9795.746094 1944.354248 10033.171875 1944.354248 C 10270.597656 1944.354248 10463.757813 2122.967529 10463.757813 2342.505859 C 10463.757813 2562.044434 10270.597656 2740.644531 10033.171875 2740.644531 C 9927.012695 2740.644531 9825.048828 2704.598633 9746.018555 2639.158936 C 9715.577148 2613.932861 9669.96582 2617.893555 9644.364258 2648.024414 C 9631.96582 2662.663086 9626.037109 2681.223389 9627.719727 2700.262207 C 9629.427734 2719.353027 9638.513672 2736.619141 9653.347656 2748.902344 C 9758.314453 2835.813965 9893.206055 2883.689941 10033.171875 2883.689941 C 10350.248047 2883.689941 10608.227539 2640.918945 10608.227539 2342.505859 C 10608.227539 2044.079834 10350.248047 1801.295898 10033.171875 1801.295898 Z"/>
            <path id="path9" fill="#ffffff" stroke="none" d="M 9530.336914 1091.132813 C 9400.230469 1091.132813 9294.380859 1195.709229 9294.380859 1324.250732 C 9294.380859 1452.792236 9400.230469 1557.366699 9530.336914 1557.366699 C 9660.446289 1557.366699 9766.293945 1452.792236 9766.293945 1324.250732 C 9766.293945 1195.709229 9660.446289 1091.132813 9530.336914 1091.132813 Z"/>
        </g>
    </g>
    <g id="Camada-2">
        <g id="g4">
            <g id="g5">
                <path id="path10" fill="#ffffff" stroke="none" d="M 5479.085449 7222.080078 L 3899.380615 5642.399902 C 3877.828125 5620.841309 3842.912109 5620.841309 3821.358154 5642.399902 L 2241.680664 7222.080078 C 2220.128174 7243.628906 2220.128174 7278.54248 2241.680664 7300.101074 L 3821.358154 8879.800781 C 3831.703613 8890.152344 3845.740967 8895.96875 3860.369873 8895.96875 C 3874.998779 8895.96875 3889.035156 8890.152344 3899.380615 8879.800781 L 5479.085449 7300.101074 C 5489.431152 7289.749512 5495.250977 7275.71875 5495.250977 7261.09082 C 5495.250977 7246.461914 5489.431152 7232.421875 5479.085449 7222.080078 Z"/>
                <path id="path11" fill="#ffffff" stroke="none" d="M 3335.686768 7222.080078 L 1755.981689 5642.399902 C 1734.429199 5620.841309 1699.513184 5620.841309 1677.959717 5642.399902 L 98.25457 7222.080078 C 87.909012 7232.421875 82.090439 7246.461914 82.090439 7261.09082 C 82.090439 7275.71875 87.909012 7289.749512 98.25457 7300.101074 L 1677.959717 8879.800781 C 1688.73645 8890.579102 1702.85437 8895.96875 1716.971436 8895.96875 C 1731.088013 8895.96875 1745.205933 8890.579102 1755.981689 8879.800781 L 3335.686768 7300.101074 C 3346.032227 7289.749512 3351.852539 7275.71875 3351.852539 7261.09082 C 3351.852539 7246.461914 3346.032227 7232.421875 3335.686768 7222.080078 Z"/>
            </g>
            <path id="path12" fill="#3c3a4f" stroke="none" d="M 4858.056152 7154.350586 L 2895.413818 5191.706543 C 2836.493652 5132.733398 2740.85083 5132.733398 2681.930664 5191.706543 L 719.284973 7154.350586 C 660.310181 7213.29834 660.310181 7308.887695 719.284973 7367.835938 L 2681.930664 9330.480469 C 2711.390869 9359.966797 2750.04248 9374.707031 2788.674072 9374.707031 C 2827.298584 9374.707031 2865.953613 9359.966797 2895.413818 9330.480469 L 4858.056152 7367.835938 C 4917.030762 7308.887695 4917.030762 7213.29834 4858.056152 7154.350586 Z"/>
            <path id="path13" fill="#ffffff" stroke="none" d="M 3291.504639 6884.628906 C 2974.428223 6884.628906 2716.448486 7127.413086 2716.448486 7425.839844 C 2716.448486 7645.37793 2523.28833 7823.978027 2285.836182 7823.978027 C 2048.410889 7823.978027 1855.25 7645.37793 1855.25 7425.839844 C 1855.25 7206.300781 2048.410889 7027.687988 2285.836182 7027.687988 C 2391.994385 7027.687988 2493.959473 7063.734375 2572.989014 7129.173828 C 2603.534668 7154.425293 2649.093506 7150.425781 2674.643311 7120.307617 C 2687.04248 7105.668945 2692.944336 7087.12207 2691.287842 7068.083008 C 2689.60498 7049.004883 2680.519287 7031.726563 2665.686768 7019.430664 C 2560.666992 6932.505859 2425.776123 6884.628906 2285.836182 6884.628906 C 1968.759888 6884.628906 1710.780884 7127.413086 1710.780884 7425.839844 C 1710.780884 7724.251953 1968.759888 7967.023438 2285.836182 7967.023438 C 2602.938721 7967.023438 2860.918213 7724.251953 2860.918213 7425.839844 C 2860.918213 7206.300781 3054.079102 7027.687988 3291.504639 7027.687988 C 3528.93042 7027.687988 3722.091309 7206.300781 3722.091309 7425.839844 C 3722.091309 7645.37793 3528.93042 7823.978027 3291.504639 7823.978027 C 3185.346436 7823.978027 3083.381836 7787.931641 3004.351807 7722.492188 C 2973.910156 7697.265625 2928.299072 7701.226563 2902.697998 7731.357422 C 2890.298828 7745.996094 2884.37085 7764.556641 2886.053467 7783.595703 C 2887.761719 7802.686523 2896.8479 7819.952148 2911.680664 7832.235352 C 3016.648193 7919.147461 3151.539307 7967.023438 3291.504639 7967.023438 C 3608.581299 7967.023438 3866.560547 7724.251953 3866.560547 7425.839844 C 3866.560547 7127.413086 3608.581299 6884.628906 3291.504639 6884.628906 Z"/>
            <path id="path14" fill="#ffffff" stroke="none" d="M 2788.670654 6174.466309 C 2658.564697 6174.466309 2552.714111 6279.042969 2552.714111 6407.583984 C 2552.714111 6536.125488 2658.564697 6640.700195 2788.670654 6640.700195 C 2918.779785 6640.700195 3024.627197 6536.125488 3024.627197 6407.583984 C 3024.627197 6279.042969 2918.779785 6174.466309 2788.670654 6174.466309 Z"/>
        </g>
    </g>
    <g id="Camada-1">
        <g id="g6">
            <g id="g7">
                <path id="path15" fill="#b09ecc" stroke="none" d="M 5479.085449 2138.746582 L 3899.380615 559.06665 C 3877.828125 537.508057 3842.912109 537.508057 3821.358154 559.06665 L 2241.680664 2138.746582 C 2220.128174 2160.295654 2220.128174 2195.208984 2241.680664 2216.767578 L 3821.358154 3796.466553 C 3831.703613 3806.818115 3845.740967 3812.635742 3860.369873 3812.635742 C 3874.998779 3812.635742 3889.035156 3806.818115 3899.380615 3796.466553 L 5479.085449 2216.767578 C 5489.431152 2206.416016 5495.250977 2192.385986 5495.250977 2177.757324 C 5495.250977 2163.128174 5489.431152 2149.088623 5479.085449 2138.746582 Z"/>
                <path id="path16" fill="#b09ecc" stroke="none" d="M 3335.686768 2138.746582 L 1755.981689 559.06665 C 1734.429199 537.508057 1699.513184 537.508057 1677.959717 559.06665 L 98.25457 2138.746582 C 87.909012 2149.088623 82.090439 2163.128174 82.090439 2177.757324 C 82.090439 2192.385986 87.909012 2206.416016 98.25457 2216.767578 L 1677.959717 3796.466553 C 1688.73645 3807.246094 1702.85437 3812.635742 1716.971436 3812.635742 C 1731.088013 3812.635742 1745.205933 3807.246094 1755.981689 3796.466553 L 3335.686768 2216.767578 C 3346.032227 2206.416016 3351.852539 2192.385986 3351.852539 2177.757324 C 3351.852539 2163.128174 3346.032227 2149.088623 3335.686768 2138.746582 Z"/>
            </g>
            <path id="path17" fill="#3c3a4f" stroke="none" d="M 4858.056152 2071.017578 L 2895.413818 108.373535 C 2836.493652 49.400391 2740.85083 49.400391 2681.930664 108.373535 L 719.284973 2071.017578 C 660.310181 2129.965088 660.310181 2225.554688 719.284973 2284.502197 L 2681.930664 4247.146484 C 2711.390869 4276.633301 2750.04248 4291.374023 2788.674072 4291.374023 C 2827.298584 4291.374023 2865.953613 4276.633301 2895.413818 4247.146484 L 4858.056152 2284.502197 C 4917.030762 2225.554688 4917.030762 2129.965088 4858.056152 2071.017578 Z"/>
            <path id="path18" fill="#ffffff" stroke="none" d="M 3291.504639 1801.295898 C 2974.428223 1801.295898 2716.448486 2044.079834 2716.448486 2342.505859 C 2716.448486 2562.044434 2523.28833 2740.644531 2285.836182 2740.644531 C 2048.410889 2740.644531 1855.25 2562.044434 1855.25 2342.505859 C 1855.25 2122.967529 2048.410889 1944.354248 2285.836182 1944.354248 C 2391.994385 1944.354248 2493.959473 1980.400879 2572.989014 2045.840576 C 2603.534668 2071.092285 2649.093506 2067.092773 2674.643311 2036.974365 C 2687.04248 2022.335938 2692.944336 2003.788574 2691.287842 1984.749756 C 2689.60498 1965.671387 2680.519287 1948.392822 2665.686768 1936.096924 C 2560.666992 1849.172363 2425.776123 1801.295898 2285.836182 1801.295898 C 1968.759888 1801.295898 1710.780884 2044.079834 1710.780884 2342.505859 C 1710.780884 2640.918945 1968.759888 2883.689941 2285.836182 2883.689941 C 2602.938721 2883.689941 2860.918213 2640.918945 2860.918213 2342.505859 C 2860.918213 2122.967529 3054.079102 1944.354248 3291.504639 1944.354248 C 3528.93042 1944.354248 3722.091309 2122.967529 3722.091309 2342.505859 C 3722.091309 2562.044434 3528.93042 2740.644531 3291.504639 2740.644531 C 3185.346436 2740.644531 3083.381836 2704.598633 3004.351807 2639.158936 C 2973.910156 2613.932861 2928.299072 2617.893555 2902.697998 2648.024414 C 2890.298828 2662.663086 2884.37085 2681.223389 2886.053467 2700.262207 C 2887.761719 2719.353027 2896.8479 2736.619141 2911.680664 2748.902344 C 3016.648193 2835.813965 3151.539307 2883.689941 3291.504639 2883.689941 C 3608.581299 2883.689941 3866.560547 2640.918945 3866.560547 2342.505859 C 3866.560547 2044.079834 3608.581299 1801.295898 3291.504639 1801.295898 Z"/>
            <path id="path19" fill="#ffffff" stroke="none" d="M 2788.670654 1091.132813 C 2658.564697 1091.132813 2552.714111 1195.709229 2552.714111 1324.250732 C 2552.714111 1452.792236 2658.564697 1557.366699 2788.670654 1557.366699 C 2918.779785 1557.366699 3024.627197 1452.792236 3024.627197 1324.250732 C 3024.627197 1195.709229 2918.779785 1091.132813 2788.670654 1091.132813 Z"/>
        </g>
    </g>
</svg>
